<svg xmlns="http://www.w3.org/2000/svg"
     width="120" height="118"
     viewBox="0 0 120 118"
     shape-rendering="crispEdges">

  <rect width="100%" height="100%" fill="#1a1a1a"/>

  <rect x="52" y="10" width="23" height="1" fill="#FFFFFF"/><rect x="52" y="11" width="23" height="1" fill="#FFFFFF"/><rect x="52" y="12" width="23" height="1" fill="#FFFFFF"/><rect x="52" y="13" width="23" height="1" fill="#FFFFFF"/><rect x="11" y="14" width="4" height="1" fill="#FFFFFF"/><rect x="45" y="14" width="41" height="1" fill="#FFFFFF"/><rect x="11" y="15" width="4" height="1" fill="#FFFFFF"/><rect x="45" y="15" width="41" height="1" fill="#FFFFFF"/><rect x="11" y="16" width="4" height="1" fill="#FFFFFF"/><rect x="45" y="16" width="41" height="1" fill="#FFFFFF"/><rect x="11" y="17" width="4" height="1" fill="#FFFFFF"/><rect x="45" y="17" width="41" height="1" fill="#FFFFFF"/><rect x="15" y="18" width="4" height="1" fill="#FFFFFF"/><rect x="37" y="18" width="34" height="1" fill="#FFFFFF"/><rect x="86" y="18" width="7" height="1" fill="#FFFFFF"/><rect x="15" y="19" width="4" height="1" fill="#FFFFFF"/><rect x="37" y="19" width="34" height="1" fill="#FFFFFF"/><rect x="86" y="19" width="7" height="1" fill="#FFFFFF"/><rect x="15" y="20" width="4" height="1" fill="#FFFFFF"/><rect x="37" y="20" width="34" height="1" fill="#FFFFFF"/><rect x="86" y="20" width="7" height="1" fill="#FFFFFF"/><rect x="15" y="21" width="4" height="1" fill="#FFFFFF"/><rect x="37" y="21" width="34" height="1" fill="#FFFFFF"/><rect x="86" y="21" width="7" height="1" fill="#FFFFFF"/><rect x="34" y="22" width="29" height="1" fill="#FFFFFF"/><rect x="93" y="22" width="4" height="1" fill="#FFFFFF"/><rect x="34" y="23" width="29" height="1" fill="#FFFFFF"/><rect x="93" y="23" width="4" height="1" fill="#FFFFFF"/><rect x="34" y="24" width="29" height="1" fill="#FFFFFF"/><rect x="93" y="24" width="4" height="1" fill="#FFFFFF"/><rect x="30" y="25" width="30" height="1" fill="#FFFFFF"/><rect x="30" y="26" width="30" height="1" fill="#FFFFFF"/><rect x="30" y="27" width="30" height="1" fill="#FFFFFF"/><rect x="30" y="28" width="30" height="1" fill="#FFFFFF"/><rect x="26" y="29" width="30" height="1" fill="#FFFFFF"/><rect x="26" y="30" width="30" height="1" fill="#FFFFFF"/><rect x="26" y="31" width="30" height="1" fill="#FFFFFF"/><rect x="26" y="32" width="30" height="1" fill="#FFFFFF"/><rect x="26" y="33" width="26" height="1" fill="#FFFFFF"/><rect x="71" y="33" width="4" height="1" fill="#FFFFFF"/><rect x="26" y="34" width="26" height="1" fill="#FFFFFF"/><rect x="71" y="34" width="4" height="1" fill="#FFFFFF"/><rect x="26" y="35" width="26" height="1" fill="#FFFFFF"/><rect x="71" y="35" width="4" height="1" fill="#FFFFFF"/><rect x="26" y="36" width="26" height="1" fill="#FFFFFF"/><rect x="71" y="36" width="4" height="1" fill="#FFFFFF"/><rect x="23" y="37" width="26" height="1" fill="#FFFFFF"/><rect x="101" y="37" width="3" height="1" fill="#FFFFFF"/><rect x="23" y="38" width="26" height="1" fill="#FFFFFF"/><rect x="101" y="38" width="3" height="1" fill="#FFFFFF"/><rect x="23" y="39" width="26" height="1" fill="#FFFFFF"/><rect x="101" y="39" width="3" height="1" fill="#FFFFFF"/><rect x="23" y="40" width="26" height="1" fill="#FFFFFF"/><rect x="104" y="40" width="4" height="1" fill="#FFFFFF"/><rect x="23" y="41" width="26" height="1" fill="#FFFFFF"/><rect x="104" y="41" width="4" height="1" fill="#FFFFFF"/><rect x="23" y="42" width="26" height="1" fill="#FFFFFF"/><rect x="104" y="42" width="4" height="1" fill="#FFFFFF"/><rect x="23" y="43" width="26" height="1" fill="#FFFFFF"/><rect x="104" y="43" width="4" height="1" fill="#FFFFFF"/><rect x="23" y="44" width="22" height="1" fill="#FFFFFF"/><rect x="23" y="45" width="22" height="1" fill="#FFFFFF"/><rect x="23" y="46" width="22" height="1" fill="#FFFFFF"/><rect x="23" y="47" width="22" height="1" fill="#FFFFFF"/><rect x="19" y="48" width="26" height="1" fill="#FFFFFF"/><rect x="19" y="49" width="26" height="1" fill="#FFFFFF"/><rect x="19" y="50" width="26" height="1" fill="#FFFFFF"/><rect x="19" y="51" width="26" height="1" fill="#FFFFFF"/><rect x="19" y="52" width="26" height="1" fill="#FFFFFF"/><rect x="63" y="52" width="4" height="1" fill="#FFFFFF"/><rect x="19" y="53" width="26" height="1" fill="#FFFFFF"/><rect x="63" y="53" width="4" height="1" fill="#FFFFFF"/><rect x="19" y="54" width="26" height="1" fill="#FFFFFF"/><rect x="63" y="54" width="4" height="1" fill="#FFFFFF"/><rect x="19" y="55" width="26" height="1" fill="#FFFFFF"/><rect x="19" y="56" width="26" height="1" fill="#FFFFFF"/><rect x="19" y="57" width="26" height="1" fill="#FFFFFF"/><rect x="19" y="58" width="26" height="1" fill="#FFFFFF"/><rect x="19" y="59" width="26" height="1" fill="#FFFFFF"/><rect x="19" y="60" width="26" height="1" fill="#FFFFFF"/><rect x="19" y="61" width="26" height="1" fill="#FFFFFF"/><rect x="19" y="62" width="26" height="1" fill="#FFFFFF"/><rect x="19" y="63" width="26" height="1" fill="#FFFFFF"/><rect x="93" y="63" width="4" height="1" fill="#FFFFFF"/><rect x="19" y="64" width="26" height="1" fill="#FFFFFF"/><rect x="93" y="64" width="4" height="1" fill="#FFFFFF"/><rect x="19" y="65" width="26" height="1" fill="#FFFFFF"/><rect x="93" y="65" width="4" height="1" fill="#FFFFFF"/><rect x="19" y="66" width="30" height="1" fill="#FFFFFF"/><rect x="90" y="66" width="3" height="1" fill="#FFFFFF"/><rect x="19" y="67" width="30" height="1" fill="#FFFFFF"/><rect x="90" y="67" width="3" height="1" fill="#FFFFFF"/><rect x="19" y="68" width="30" height="1" fill="#FFFFFF"/><rect x="90" y="68" width="3" height="1" fill="#FFFFFF"/><rect x="19" y="69" width="30" height="1" fill="#FFFFFF"/><rect x="90" y="69" width="3" height="1" fill="#FFFFFF"/><rect x="23" y="70" width="26" height="1" fill="#FFFFFF"/><rect x="23" y="71" width="26" height="1" fill="#FFFFFF"/><rect x="23" y="72" width="26" height="1" fill="#FFFFFF"/><rect x="23" y="73" width="26" height="1" fill="#FFFFFF"/><rect x="23" y="74" width="29" height="1" fill="#FFFFFF"/><rect x="23" y="75" width="29" height="1" fill="#FFFFFF"/><rect x="23" y="76" width="29" height="1" fill="#FFFFFF"/><rect x="23" y="77" width="29" height="1" fill="#FFFFFF"/><rect x="11" y="78" width="4" height="1" fill="#FFFFFF"/><rect x="23" y="78" width="33" height="1" fill="#FFFFFF"/><rect x="11" y="79" width="4" height="1" fill="#FFFFFF"/><rect x="23" y="79" width="33" height="1" fill="#FFFFFF"/><rect x="11" y="80" width="4" height="1" fill="#FFFFFF"/><rect x="23" y="80" width="33" height="1" fill="#FFFFFF"/><rect x="26" y="81" width="34" height="1" fill="#FFFFFF"/><rect x="97" y="81" width="4" height="1" fill="#FFFFFF"/><rect x="26" y="82" width="34" height="1" fill="#FFFFFF"/><rect x="97" y="82" width="4" height="1" fill="#FFFFFF"/><rect x="26" y="83" width="34" height="1" fill="#FFFFFF"/><rect x="97" y="83" width="4" height="1" fill="#FFFFFF"/><rect x="26" y="84" width="34" height="1" fill="#FFFFFF"/><rect x="97" y="84" width="4" height="1" fill="#FFFFFF"/><rect x="30" y="85" width="37" height="1" fill="#FFFFFF"/><rect x="93" y="85" width="4" height="1" fill="#FFFFFF"/><rect x="30" y="86" width="37" height="1" fill="#FFFFFF"/><rect x="93" y="86" width="4" height="1" fill="#FFFFFF"/><rect x="30" y="87" width="37" height="1" fill="#FFFFFF"/><rect x="93" y="87" width="4" height="1" fill="#FFFFFF"/><rect x="30" y="88" width="37" height="1" fill="#FFFFFF"/><rect x="93" y="88" width="4" height="1" fill="#FFFFFF"/><rect x="34" y="89" width="41" height="1" fill="#FFFFFF"/><rect x="86" y="89" width="7" height="1" fill="#FFFFFF"/><rect x="34" y="90" width="41" height="1" fill="#FFFFFF"/><rect x="86" y="90" width="7" height="1" fill="#FFFFFF"/><rect x="34" y="91" width="41" height="1" fill="#FFFFFF"/><rect x="86" y="91" width="7" height="1" fill="#FFFFFF"/><rect x="34" y="92" width="41" height="1" fill="#FFFFFF"/><rect x="86" y="92" width="7" height="1" fill="#FFFFFF"/><rect x="37" y="93" width="52" height="1" fill="#FFFFFF"/><rect x="37" y="94" width="52" height="1" fill="#FFFFFF"/><rect x="37" y="95" width="52" height="1" fill="#FFFFFF"/><rect x="45" y="96" width="37" height="1" fill="#FFFFFF"/><rect x="45" y="97" width="37" height="1" fill="#FFFFFF"/><rect x="45" y="98" width="37" height="1" fill="#FFFFFF"/><rect x="45" y="99" width="37" height="1" fill="#FFFFFF"/><rect x="15" y="100" width="4" height="1" fill="#FFFFFF"/><rect x="52" y="100" width="23" height="1" fill="#FFFFFF"/><rect x="15" y="101" width="4" height="1" fill="#FFFFFF"/><rect x="52" y="101" width="23" height="1" fill="#FFFFFF"/><rect x="15" y="102" width="4" height="1" fill="#FFFFFF"/><rect x="52" y="102" width="23" height="1" fill="#FFFFFF"/><rect x="15" y="103" width="4" height="1" fill="#FFFFFF"/><rect x="52" y="103" width="23" height="1" fill="#FFFFFF"/><rect x="101" y="104" width="3" height="1" fill="#FFFFFF"/><rect x="101" y="105" width="3" height="1" fill="#FFFFFF"/><rect x="101" y="106" width="3" height="1" fill="#FFFFFF"/><rect x="101" y="107" width="3" height="1" fill="#FFFFFF"/>

</svg>
