<svg xmlns="http://www.w3.org/2000/svg"
     width="120" height="118"
     viewBox="0 0 120 118"
     shape-rendering="crispEdges">

  <rect width="100%" height="100%" fill="#1a1a1a"/>

  <rect x="118" y="0" width="2" height="1" fill="#FFFFFF"/><rect x="118" y="1" width="2" height="1" fill="#FFFFFF"/><rect x="118" y="2" width="2" height="1" fill="#FFFFFF"/><rect x="118" y="3" width="2" height="1" fill="#FFFFFF"/><rect x="118" y="4" width="2" height="1" fill="#FFFFFF"/><rect x="118" y="5" width="2" height="1" fill="#FFFFFF"/><rect x="118" y="6" width="2" height="1" fill="#FFFFFF"/><rect x="118" y="7" width="2" height="1" fill="#FFFFFF"/><rect x="118" y="8" width="2" height="1" fill="#FFFFFF"/><rect x="118" y="9" width="2" height="1" fill="#FFFFFF"/><rect x="118" y="10" width="2" height="1" fill="#FFFFFF"/><rect x="118" y="11" width="2" height="1" fill="#FFFFFF"/><rect x="118" y="12" width="2" height="1" fill="#FFFFFF"/><rect x="118" y="13" width="2" height="1" fill="#FFFFFF"/><rect x="118" y="14" width="2" height="1" fill="#FFFFFF"/><rect x="44" y="15" width="29" height="1" fill="#FFFFFF"/><rect x="118" y="15" width="2" height="1" fill="#FFFFFF"/><rect x="44" y="16" width="29" height="1" fill="#FFFFFF"/><rect x="118" y="16" width="2" height="1" fill="#FFFFFF"/><rect x="44" y="17" width="29" height="1" fill="#FFFFFF"/><rect x="118" y="17" width="2" height="1" fill="#FFFFFF"/><rect x="44" y="18" width="29" height="1" fill="#FFFFFF"/><rect x="118" y="18" width="2" height="1" fill="#FFFFFF"/><rect x="44" y="19" width="29" height="1" fill="#FFFFFF"/><rect x="118" y="19" width="2" height="1" fill="#FFFFFF"/><rect x="44" y="20" width="29" height="1" fill="#FFFFFF"/><rect x="118" y="20" width="2" height="1" fill="#FFFFFF"/><rect x="44" y="21" width="29" height="1" fill="#FFFFFF"/><rect x="118" y="21" width="2" height="1" fill="#FFFFFF"/><rect x="37" y="22" width="44" height="1" fill="#FFFFFF"/><rect x="118" y="22" width="2" height="1" fill="#FFFFFF"/><rect x="37" y="23" width="44" height="1" fill="#FFFFFF"/><rect x="118" y="23" width="2" height="1" fill="#FFFFFF"/><rect x="37" y="24" width="44" height="1" fill="#FFFFFF"/><rect x="118" y="24" width="2" height="1" fill="#FFFFFF"/><rect x="37" y="25" width="44" height="1" fill="#FFFFFF"/><rect x="118" y="25" width="2" height="1" fill="#FFFFFF"/><rect x="37" y="26" width="44" height="1" fill="#FFFFFF"/><rect x="118" y="26" width="2" height="1" fill="#FFFFFF"/><rect x="37" y="27" width="44" height="1" fill="#FFFFFF"/><rect x="118" y="27" width="2" height="1" fill="#FFFFFF"/><rect x="37" y="28" width="44" height="1" fill="#FFFFFF"/><rect x="118" y="28" width="2" height="1" fill="#FFFFFF"/><rect x="29" y="29" width="59" height="1" fill="#FFFFFF"/><rect x="118" y="29" width="2" height="1" fill="#FFFFFF"/><rect x="29" y="30" width="59" height="1" fill="#FFFFFF"/><rect x="118" y="30" width="2" height="1" fill="#FFFFFF"/><rect x="29" y="31" width="59" height="1" fill="#FFFFFF"/><rect x="118" y="31" width="2" height="1" fill="#FFFFFF"/><rect x="29" y="32" width="59" height="1" fill="#FFFFFF"/><rect x="118" y="32" width="2" height="1" fill="#FFFFFF"/><rect x="29" y="33" width="59" height="1" fill="#FFFFFF"/><rect x="118" y="33" width="2" height="1" fill="#FFFFFF"/><rect x="29" y="34" width="59" height="1" fill="#FFFFFF"/><rect x="118" y="34" width="2" height="1" fill="#FFFFFF"/><rect x="29" y="35" width="59" height="1" fill="#FFFFFF"/><rect x="118" y="35" width="2" height="1" fill="#FFFFFF"/><rect x="29" y="36" width="59" height="1" fill="#FFFFFF"/><rect x="118" y="36" width="2" height="1" fill="#FFFFFF"/><rect x="29" y="37" width="15" height="1" fill="#FFFFFF"/><rect x="51" y="37" width="15" height="1" fill="#FFFFFF"/><rect x="73" y="37" width="15" height="1" fill="#FFFFFF"/><rect x="118" y="37" width="2" height="1" fill="#FFFFFF"/><rect x="29" y="38" width="15" height="1" fill="#FFFFFF"/><rect x="51" y="38" width="15" height="1" fill="#FFFFFF"/><rect x="73" y="38" width="15" height="1" fill="#FFFFFF"/><rect x="118" y="38" width="2" height="1" fill="#FFFFFF"/><rect x="29" y="39" width="15" height="1" fill="#FFFFFF"/><rect x="51" y="39" width="15" height="1" fill="#FFFFFF"/><rect x="73" y="39" width="15" height="1" fill="#FFFFFF"/><rect x="118" y="39" width="2" height="1" fill="#FFFFFF"/><rect x="29" y="40" width="15" height="1" fill="#FFFFFF"/><rect x="51" y="40" width="15" height="1" fill="#FFFFFF"/><rect x="73" y="40" width="15" height="1" fill="#FFFFFF"/><rect x="118" y="40" width="2" height="1" fill="#FFFFFF"/><rect x="29" y="41" width="15" height="1" fill="#FFFFFF"/><rect x="51" y="41" width="15" height="1" fill="#FFFFFF"/><rect x="73" y="41" width="15" height="1" fill="#FFFFFF"/><rect x="118" y="41" width="2" height="1" fill="#FFFFFF"/><rect x="29" y="42" width="15" height="1" fill="#FFFFFF"/><rect x="51" y="42" width="15" height="1" fill="#FFFFFF"/><rect x="73" y="42" width="15" height="1" fill="#FFFFFF"/><rect x="118" y="42" width="2" height="1" fill="#FFFFFF"/><rect x="29" y="43" width="15" height="1" fill="#FFFFFF"/><rect x="51" y="43" width="15" height="1" fill="#FFFFFF"/><rect x="73" y="43" width="15" height="1" fill="#FFFFFF"/><rect x="118" y="43" width="2" height="1" fill="#FFFFFF"/><rect x="29" y="44" width="59" height="1" fill="#FFFFFF"/><rect x="118" y="44" width="2" height="1" fill="#FFFFFF"/><rect x="29" y="45" width="59" height="1" fill="#FFFFFF"/><rect x="118" y="45" width="2" height="1" fill="#FFFFFF"/><rect x="29" y="46" width="59" height="1" fill="#FFFFFF"/><rect x="118" y="46" width="2" height="1" fill="#FFFFFF"/><rect x="29" y="47" width="59" height="1" fill="#FFFFFF"/><rect x="118" y="47" width="2" height="1" fill="#FFFFFF"/><rect x="29" y="48" width="59" height="1" fill="#FFFFFF"/><rect x="118" y="48" width="2" height="1" fill="#FFFFFF"/><rect x="29" y="49" width="59" height="1" fill="#FFFFFF"/><rect x="118" y="49" width="2" height="1" fill="#FFFFFF"/><rect x="29" y="50" width="59" height="1" fill="#FFFFFF"/><rect x="118" y="50" width="2" height="1" fill="#FFFFFF"/><rect x="29" y="51" width="59" height="1" fill="#FFFFFF"/><rect x="118" y="51" width="2" height="1" fill="#FFFFFF"/><rect x="29" y="52" width="59" height="1" fill="#FFFFFF"/><rect x="118" y="52" width="2" height="1" fill="#FFFFFF"/><rect x="29" y="53" width="59" height="1" fill="#FFFFFF"/><rect x="118" y="53" width="2" height="1" fill="#FFFFFF"/><rect x="29" y="54" width="59" height="1" fill="#FFFFFF"/><rect x="118" y="54" width="2" height="1" fill="#FFFFFF"/><rect x="29" y="55" width="59" height="1" fill="#FFFFFF"/><rect x="118" y="55" width="2" height="1" fill="#FFFFFF"/><rect x="29" y="56" width="59" height="1" fill="#FFFFFF"/><rect x="118" y="56" width="2" height="1" fill="#FFFFFF"/><rect x="29" y="57" width="59" height="1" fill="#FFFFFF"/><rect x="118" y="57" width="2" height="1" fill="#FFFFFF"/><rect x="29" y="58" width="59" height="1" fill="#FFFFFF"/><rect x="118" y="58" width="2" height="1" fill="#FFFFFF"/><rect x="37" y="59" width="14" height="1" fill="#FFFFFF"/><rect x="66" y="59" width="15" height="1" fill="#FFFFFF"/><rect x="118" y="59" width="2" height="1" fill="#FFFFFF"/><rect x="37" y="60" width="14" height="1" fill="#FFFFFF"/><rect x="66" y="60" width="15" height="1" fill="#FFFFFF"/><rect x="118" y="60" width="2" height="1" fill="#FFFFFF"/><rect x="37" y="61" width="14" height="1" fill="#FFFFFF"/><rect x="66" y="61" width="15" height="1" fill="#FFFFFF"/><rect x="118" y="61" width="2" height="1" fill="#FFFFFF"/><rect x="37" y="62" width="14" height="1" fill="#FFFFFF"/><rect x="66" y="62" width="15" height="1" fill="#FFFFFF"/><rect x="118" y="62" width="2" height="1" fill="#FFFFFF"/><rect x="37" y="63" width="14" height="1" fill="#FFFFFF"/><rect x="66" y="63" width="15" height="1" fill="#FFFFFF"/><rect x="118" y="63" width="2" height="1" fill="#FFFFFF"/><rect x="37" y="64" width="14" height="1" fill="#FFFFFF"/><rect x="66" y="64" width="15" height="1" fill="#FFFFFF"/><rect x="118" y="64" width="2" height="1" fill="#FFFFFF"/><rect x="37" y="65" width="14" height="1" fill="#FFFFFF"/><rect x="66" y="65" width="15" height="1" fill="#FFFFFF"/><rect x="118" y="65" width="2" height="1" fill="#FFFFFF"/><rect x="44" y="66" width="29" height="1" fill="#FFFFFF"/><rect x="118" y="66" width="2" height="1" fill="#FFFFFF"/><rect x="44" y="67" width="29" height="1" fill="#FFFFFF"/><rect x="118" y="67" width="2" height="1" fill="#FFFFFF"/><rect x="44" y="68" width="29" height="1" fill="#FFFFFF"/><rect x="118" y="68" width="2" height="1" fill="#FFFFFF"/><rect x="44" y="69" width="29" height="1" fill="#FFFFFF"/><rect x="118" y="69" width="2" height="1" fill="#FFFFFF"/><rect x="44" y="70" width="29" height="1" fill="#FFFFFF"/><rect x="118" y="70" width="2" height="1" fill="#FFFFFF"/><rect x="44" y="71" width="29" height="1" fill="#FFFFFF"/><rect x="118" y="71" width="2" height="1" fill="#FFFFFF"/><rect x="44" y="72" width="29" height="1" fill="#FFFFFF"/><rect x="118" y="72" width="2" height="1" fill="#FFFFFF"/><rect x="44" y="73" width="29" height="1" fill="#FFFFFF"/><rect x="118" y="73" width="2" height="1" fill="#FFFFFF"/><rect x="118" y="74" width="2" height="1" fill="#FFFFFF"/><rect x="118" y="75" width="2" height="1" fill="#FFFFFF"/><rect x="118" y="76" width="2" height="1" fill="#FFFFFF"/><rect x="118" y="77" width="2" height="1" fill="#FFFFFF"/><rect x="118" y="78" width="2" height="1" fill="#FFFFFF"/><rect x="118" y="79" width="2" height="1" fill="#FFFFFF"/><rect x="118" y="80" width="2" height="1" fill="#FFFFFF"/><rect x="44" y="81" width="29" height="1" fill="#FFFFFF"/><rect x="118" y="81" width="2" height="1" fill="#FFFFFF"/><rect x="44" y="82" width="29" height="1" fill="#FFFFFF"/><rect x="118" y="82" width="2" height="1" fill="#FFFFFF"/><rect x="44" y="83" width="29" height="1" fill="#FFFFFF"/><rect x="118" y="83" width="2" height="1" fill="#FFFFFF"/><rect x="44" y="84" width="29" height="1" fill="#FFFFFF"/><rect x="118" y="84" width="2" height="1" fill="#FFFFFF"/><rect x="44" y="85" width="29" height="1" fill="#FFFFFF"/><rect x="118" y="85" width="2" height="1" fill="#FFFFFF"/><rect x="44" y="86" width="29" height="1" fill="#FFFFFF"/><rect x="118" y="86" width="2" height="1" fill="#FFFFFF"/><rect x="44" y="87" width="29" height="1" fill="#FFFFFF"/><rect x="118" y="87" width="2" height="1" fill="#FFFFFF"/><rect x="44" y="88" width="29" height="1" fill="#FFFFFF"/><rect x="118" y="88" width="2" height="1" fill="#FFFFFF"/><rect x="29" y="89" width="59" height="1" fill="#FFFFFF"/><rect x="118" y="89" width="2" height="1" fill="#FFFFFF"/><rect x="29" y="90" width="59" height="1" fill="#FFFFFF"/><rect x="118" y="90" width="2" height="1" fill="#FFFFFF"/><rect x="29" y="91" width="59" height="1" fill="#FFFFFF"/><rect x="118" y="91" width="2" height="1" fill="#FFFFFF"/><rect x="29" y="92" width="59" height="1" fill="#FFFFFF"/><rect x="118" y="92" width="2" height="1" fill="#FFFFFF"/><rect x="29" y="93" width="59" height="1" fill="#FFFFFF"/><rect x="118" y="93" width="2" height="1" fill="#FFFFFF"/><rect x="29" y="94" width="59" height="1" fill="#FFFFFF"/><rect x="118" y="94" width="2" height="1" fill="#FFFFFF"/><rect x="29" y="95" width="59" height="1" fill="#FFFFFF"/><rect x="118" y="95" width="2" height="1" fill="#FFFFFF"/><rect x="22" y="96" width="74" height="1" fill="#FFFFFF"/><rect x="118" y="96" width="2" height="1" fill="#FFFFFF"/><rect x="22" y="97" width="74" height="1" fill="#FFFFFF"/><rect x="118" y="97" width="2" height="1" fill="#FFFFFF"/><rect x="22" y="98" width="74" height="1" fill="#FFFFFF"/><rect x="118" y="98" width="2" height="1" fill="#FFFFFF"/><rect x="22" y="99" width="74" height="1" fill="#FFFFFF"/><rect x="118" y="99" width="2" height="1" fill="#FFFFFF"/><rect x="22" y="100" width="74" height="1" fill="#FFFFFF"/><rect x="118" y="100" width="2" height="1" fill="#FFFFFF"/><rect x="22" y="101" width="74" height="1" fill="#FFFFFF"/><rect x="118" y="101" width="2" height="1" fill="#FFFFFF"/><rect x="22" y="102" width="74" height="1" fill="#FFFFFF"/><rect x="118" y="102" width="2" height="1" fill="#FFFFFF"/><rect x="14" y="103" width="89" height="1" fill="#FFFFFF"/><rect x="118" y="103" width="2" height="1" fill="#FFFFFF"/><rect x="14" y="104" width="89" height="1" fill="#FFFFFF"/><rect x="118" y="104" width="2" height="1" fill="#FFFFFF"/><rect x="14" y="105" width="89" height="1" fill="#FFFFFF"/><rect x="118" y="105" width="2" height="1" fill="#FFFFFF"/><rect x="14" y="106" width="89" height="1" fill="#FFFFFF"/><rect x="118" y="106" width="2" height="1" fill="#FFFFFF"/><rect x="14" y="107" width="89" height="1" fill="#FFFFFF"/><rect x="118" y="107" width="2" height="1" fill="#FFFFFF"/><rect x="14" y="108" width="89" height="1" fill="#FFFFFF"/><rect x="118" y="108" width="2" height="1" fill="#FFFFFF"/><rect x="14" y="109" width="89" height="1" fill="#FFFFFF"/><rect x="118" y="109" width="2" height="1" fill="#FFFFFF"/><rect x="14" y="110" width="89" height="1" fill="#FFFFFF"/><rect x="118" y="110" width="2" height="1" fill="#FFFFFF"/><rect x="14" y="111" width="15" height="1" fill="#FFFFFF"/><rect x="37" y="111" width="44" height="1" fill="#FFFFFF"/><rect x="88" y="111" width="15" height="1" fill="#FFFFFF"/><rect x="118" y="111" width="2" height="1" fill="#FFFFFF"/><rect x="14" y="112" width="15" height="1" fill="#FFFFFF"/><rect x="37" y="112" width="44" height="1" fill="#FFFFFF"/><rect x="88" y="112" width="15" height="1" fill="#FFFFFF"/><rect x="118" y="112" width="2" height="1" fill="#FFFFFF"/><rect x="14" y="113" width="15" height="1" fill="#FFFFFF"/><rect x="37" y="113" width="44" height="1" fill="#FFFFFF"/><rect x="88" y="113" width="15" height="1" fill="#FFFFFF"/><rect x="118" y="113" width="2" height="1" fill="#FFFFFF"/><rect x="14" y="114" width="15" height="1" fill="#FFFFFF"/><rect x="37" y="114" width="44" height="1" fill="#FFFFFF"/><rect x="88" y="114" width="15" height="1" fill="#FFFFFF"/><rect x="118" y="114" width="2" height="1" fill="#FFFFFF"/><rect x="14" y="115" width="15" height="1" fill="#FFFFFF"/><rect x="37" y="115" width="44" height="1" fill="#FFFFFF"/><rect x="88" y="115" width="15" height="1" fill="#FFFFFF"/><rect x="118" y="115" width="2" height="1" fill="#FFFFFF"/><rect x="14" y="116" width="15" height="1" fill="#FFFFFF"/><rect x="37" y="116" width="44" height="1" fill="#FFFFFF"/><rect x="88" y="116" width="15" height="1" fill="#FFFFFF"/><rect x="118" y="116" width="2" height="1" fill="#FFFFFF"/><rect x="14" y="117" width="15" height="1" fill="#FFFFFF"/><rect x="37" y="117" width="44" height="1" fill="#FFFFFF"/><rect x="88" y="117" width="15" height="1" fill="#FFFFFF"/><rect x="118" y="117" width="2" height="1" fill="#FFFFFF"/>

</svg>
