<?xml version="1.0" encoding="iso-8859-1"?>
<!-- Generator: Adobe Illustrator 30.2.1, SVG Export Plug-In . SVG Version: 9.03 Build 0)  -->
<svg version="1.1" xmlns="http://www.w3.org/2000/svg" xmlns:xlink="http://www.w3.org/1999/xlink" x="0px" y="0px" width="360px"
	 height="360px" viewBox="0 0 360 360" enable-background="new 0 0 360 360" xml:space="preserve">
<g id="Layer_2">
	<circle fill="#FFFFFF" cx="180" cy="180" r="180"/>
</g>
<g id="Layer_1">
	<g>
		<g>
			<g>
				<g>
					<g opacity="0.7">
						<g>
							<g>
								<path fill="#951A1D" d="M186.157,303.745c-1.097-2.056-2.434-3.937-3.615-6.029c-1.281-2.233-1.003-4.799-0.5-7.175
									c0.549-2.432,1.253-4.728,0.865-7.463c-0.88-7.027,4.276-13.469,5.664-20.683c1.362-6.792,3.345-13.773,6.358-20.397
									c3.008-6.588,7.055-12.906,12.324-17.827c9.821-9.242,20.58-16.49,31.845-23.652c11.275-7.211,23.078-14.028,35.507-23.163
									c7.16-5.317,14.373-12.286,20.085-21.211c5.715-8.854,9.714-19.818,10.186-31.006c0.186-4.067,0.242-9.265-0.663-15.049
									c-0.85-5.733-2.832-12.204-5.871-17.789c-6.024-11.306-15.516-18.72-22.055-20.751c7.598,4.506,14.375,11.367,18.876,19.93
									c2.243,4.256,3.901,8.976,4.792,13.666c0.89,4.685,1.072,9.3,0.765,13.676c-0.278-4.787-1.067-9.645-2.587-14.403
									c-1.485-4.787-3.741-9.344-6.42-13.418c-5.44-8.124-12.553-14.656-20.601-19.126l-2.995-1.712l-1.5-0.839l-1.607-0.671
									c-2.146-0.888-4.297-1.745-6.44-2.569c-4.486-1.204-8.948-2.386-13.546-2.592c-9.104-0.679-18.151,0.763-26.038,4.1
									c7.463-2.899,15.707-4.162,23.984-3.786c8.326,0.393,16.406,3.059,23.762,6.751c3.483,2.156,7.083,4.126,10.224,6.82
									c3.172,2.631,6.098,5.593,8.665,8.892c5.141,6.522,8.844,14.681,9.964,22.974c1.166,8.249,0.143,16.314-2.299,23.563
									c-2.449,7.262-6.32,13.656-10.849,19.09c-9.168,10.897-20.744,17.952-32.588,22.999c6.134-3.993,12.252-8.387,17.983-13.676
									c5.718-5.269,11.035-11.423,15.105-18.692c4.049-7.239,6.82-15.671,7.024-24.614c0.105-4.455-0.406-9.027-1.732-13.464
									c-1.322-4.435-3.406-8.655-6.034-12.474c-2.631-3.825-5.81-7.236-9.328-10.209c-1.732-1.533-3.656-2.784-5.595-4.008
									c-1.942-1.22-3.807-2.569-5.958-3.419c-8.201-4.103-17.544-5.996-26.413-5.18c-8.877,0.722-17.177,3.835-23.941,8.397
									c-6.756,4.583-12.171,10.451-15.488,16.99c-2.079,3.909-3.562,8.593-3.769,12.326c2.34-13.709,13.439-27.347,29.268-33.415
									c7.869-3.077,16.904-3.888,25.594-2.289c8.741,1.554,16.899,5.705,23.808,11.158c6.802,5.618,12.24,13.031,14.873,21.282
									c2.636,8.259,2.273,16.945,0.087,24.683c-2.222,7.772-6.195,14.661-10.974,20.547c-4.787,5.904-10.339,10.895-16.09,15.263
									c-10.563,8.014-22.548,14.5-34.787,22.249c-6.111,3.888-12.308,8.091-18.292,13.046c-2.98,2.5-5.927,5.118-8.726,8.004
									c-2.807,2.807-5.542,6.032-7.93,9.076c-5.649,6.473-10.67,13.64-14.942,21.277c-4.383,7.818-8.002,16.284-10.51,25.023
									c-2.411,8.504-4.432,18.029-3.559,28.766c0.398,4.713,1.5,10.739,4.361,16.666c0.689,1.482,1.48,2.934,2.404,4.327
									c0.85,1.434,1.898,2.73,2.934,4.016c2.12,2.6,4.733,4.935,7.366,6.688c5.33,3.562,10.798,5.021,15.105,5.139
									c4.345,0.092,7.642-1.067,9.553-3.11c-4.618-1.311-10.339-2.034-14.327-5.18c2.054,0.196,4.35,0.145,6.458,0.352
									c-1.829-0.691-3.605-1.919-5.455-2.381c1.567,0.357,3.207,0.467,4.118-0.184c-1.893-1.128-5.328-1.569-7.185-2.296
									c-0.543-0.179-2.156-0.63-3.735-1.388c-1.585-0.737-3.077-1.812-3.406-2.544c3.922,2.138,8.696,3.687,12.171,3.092
									c-0.954-0.638-1.977-1.166-2.73-2.003c1.587,0.176,3.985,1.225,5.126,0.487c-2.383-1.125-4.674-1.993-6.619-3.934
									c-1.567-1.562-2.536-3.279-4.118-4.853c2.059,1.827,4.662,3.945,6.94,3.72c-0.503-0.982-1.414-1.554-2.222-2.261
									c0.204-0.003,0.388-0.059,0.549-0.163c-0.306-0.342-0.513-0.929-0.829-1.314c0.207-0.166,0.355-0.401,0.628-0.487
									l-0.477,0.311"/>
								<path fill="#951A1D" d="M174.797,318.845c-3.128-2.955-6.366-7.866-7.346-11.54"/>
								<path fill="none" d="M262.309,163.899c0,0,1.86-1.559,4.878-4.641c2.998-3.087,7.19-7.741,11.007-14.286
									c3.771-6.499,7.203-15.087,7.394-24.979c0.105-4.912-0.628-10.086-2.536-15.023c-1.88-4.945-4.958-9.624-8.818-13.676
									c-7.723-8.121-18.674-13.822-29.888-15.013c-5.588-0.878-11.216-0.077-16.478,0.987c-5.195,1.564-10.145,3.475-14.286,6.448
									c-8.448,5.598-14.191,13.393-16.82,20.823c-2.705,7.466-2.289,14.429-0.475,19.328"/>
							</g>
							<path fill="none" d="M288.681,99.349c0,0-0.388-1.018-1.309-2.794c-0.916-1.776-2.383-4.309-4.616-7.19
								c-2.245-2.86-5.256-6.065-9.139-9.071c-1.906-1.559-4.156-2.845-6.486-4.225c-1.181-0.663-2.327-1.436-3.615-2.026
								c-1.311-0.541-2.651-1.092-4.014-1.653c-5.419-2.307-11.76-3.348-18.208-3.638c-1.615,0.1-3.246,0.202-4.891,0.304
								l-2.449,0.189l-2.426,0.503c-1.615,0.352-3.23,0.686-4.825,1.097c-1.544,0.574-3.095,1.153-4.654,1.732
								c-1.559,0.521-3.018,1.314-4.457,2.123c-1.426,0.827-2.899,1.516-4.225,2.478c-2.636,1.962-5.246,3.815-7.394,6.213
								c-2.314,2.151-4.133,4.782-5.874,7.256c-0.901,1.204-1.508,2.674-2.217,3.97c-0.64,1.363-1.398,2.569-1.806,4.019"/>
						</g>
					</g>
				</g>
			</g>
		</g>
	</g>
	<g>
		<g>
			<g>
				<g>
					<g opacity="0.7">
						<g>
							<g>
								<path fill="#951A1D" d="M170.067,223.936c-1.194-2.307-3.228-3.985-5.126-5.542c-2.013-1.666-3.146-3.73-4.22-5.932
									c-1.069-2.207-2.296-4.248-4.534-5.519c-5.567-3.133-7.894-9.515-13.459-12.796c-10.155-5.868-21.124-10.76-28.699-19.305
									c-1.761-1.995-3.496-3.962-5.213-5.912c-1.658-1.949-3.299-3.881-4.93-5.797c-1.472-1.937-3.085-3.82-4.409-5.705
									l-1.822-2.822l-1.692-2.975c-4.207-7.979-6.522-16.899-5.072-25.117c0.806-4.751,2.179-9.198,3.978-13.23
									c0.913-2.021,1.857-3.975,2.929-5.886l0.745-1.317c0.145-0.304,0.092-0.138,0.204-0.304c0.62-0.916,1.289-1.778,1.931-2.654
									c1.873-2.603,5.715-5.55,9.555-7.833c3.876-2.307,7.698-4.011,10.073-6.514c-3.513,1.329-6.935,2.582-10.492,4.039
									c-3.531,1.47-7.2,3.194-10.573,5.486c5.726-6.667,13.786-11.219,22.471-12.778c1.084-0.227,2.197-0.301,3.302-0.49
									c1.128-0.036,2.212-0.191,3.391-0.194c2.363-0.02,4.787,0.064,7.137,0.235c4.613,0.39,9.229,1.378,13.799,3.003
									c-4.184-1.687-8.433-2.758-12.673-3.36c-4.251-0.561-8.859-0.852-12.872-0.536c-8.224,0.597-16.24,3.2-23.63,7.869
									c-0.929,0.574-1.855,1.163-2.738,1.824c-0.924,0.615-1.794,1.299-2.666,1.998c-0.911,0.663-1.717,1.436-2.587,2.169
									c-0.444,0.36-0.85,0.753-1.255,1.151l-0.617,0.592l-0.515,0.436c-0.329,0.23-0.577,0.628-0.916,1.005l-1.069,1.36
									c-0.771,0.893-1.365,1.868-2.021,2.837c-1.383,1.916-2.47,4.003-3.61,6.144c-4.381,8.622-6.557,19.124-6.555,30.246
									c-1.26-6.06-1.671-12.505-0.939-18.884c0.72-6.379,2.61-12.648,5.547-18.297c1.472-2.781,3.172-5.608,5.095-7.907
									c2.049-2.363,4.427-4.47,6.802-6.453c4.873-3.876,10.265-6.922,15.919-8.91c5.634-2.028,11.502-2.97,17.297-3.024
									c5.81,0.064,11.768,0.765,17.276,2.197c11.158,2.891,21.433,8.856,30.83,16.475c1.498,1.11,2.911,2.444,4.506,3.654
									c1.523,1.25,2.988,2.523,4.435,3.58c-9.29-9.145-19.124-16.651-30.029-21.547c-5.445-2.439-11.114-4.187-17.019-5.136
									c-5.963-0.939-11.992-1.391-18.047-0.6c-12.12,1.396-24.193,7.366-33.463,16.743c-9.063,9.992-13.661,23.77-13.423,37.178
									c0.166,12.28,3.96,24.617,10.517,35.282c1.643,2.666,3.61,5.534,5.496,7.721l2.906,3.49c0.98,1.12,1.967,2.156,2.965,3.23
									c3.975,4.299,8.206,8.155,12.533,11.811c4.386,4.33,8.925,8.359,13.355,12.257c9.071,8.027,17.991,15.521,25.936,23.025
									c3.677,3.294,7.925,8.236,12.398,12.288c2.011,2.136,4.491,3.894,6.667,5.328c2.263,1.391,4.746,2.24,7.389,2.146
									c-1.24-3.113-3.73-5.932-4.932-8.918c1.342,0.602,3.103,1.23,4.251,2.284c-0.617-1.253-1.253-2.692-2.375-3.539
									c0.993,0.661,2.097,1.306,3.169,1.194c-0.681-1.602-3.151-2.957-4.327-3.761c-0.635-0.546-4.644-2.082-4.876-3.113
									c1.5,0.521,3.095,1.227,4.715,1.893c1.531,0.722,3.092,1.406,4.623,1.796c-0.431-0.85-1.041-1.582-1.345-2.483
									c1.322,0.513,2.799,2.268,4.098,2.204c-1.416-1.983-2.924-3.567-4.381-5.572c-1.138-1.661-2.064-3.246-3.603-4.491
									c2.031,1.34,4.34,3.521,6.619,3.968c-0.319-1.1-1.176-1.921-1.985-2.725c0.209,0.02,0.403-0.018,0.574-0.105
									c-0.311-0.395-0.505-1.072-0.865-1.457c0.207-0.168,0.344-0.411,0.625-0.49l-0.477,0.311"/>
								<path fill="#951A1D" d="M156.957,237.207c-1.309-1.61-3.062-3.919-3.94-5.69"/>
								<path fill="none" d="M72.729,127.892c0,0,0.01-0.526,0.026-1.523c0.061-0.998-0.061-2.444,0.168-4.312
									c0.214-3.712,1.051-9.071,3.182-15.156c0.27-0.758,0.546-1.531,0.827-2.322c0.35-0.763,0.704-1.541,1.067-2.335
									c0.37-0.786,0.709-1.605,1.123-2.401c0.441-0.781,0.893-1.574,1.35-2.383c1.896-3.531,4.585-6.297,7.44-9.208
									c5.797-5.692,13.273-10.739,21.917-13.628c17.355-5.899,38.053-2.498,53.352,7.415c7.721,4.817,14.235,10.803,19.846,16.71
									c5.567,5.95,10.232,11.877,14.661,16.863"/>
							</g>
							<path fill="none" d="M103.465,85.599c0,0,0.569-0.311,1.661-0.786c1.064-0.533,2.661-1.194,4.669-1.99
								c4.057-1.447,9.895-3.205,17.054-3.432c7.29-0.196,15.753,0.378,24.418,3.406c4.338,1.482,8.772,3.429,13.163,5.861
								c4.35,2.47,8.67,5.368,12.928,8.596"/>
						</g>
					</g>
				</g>
			</g>
		</g>
	</g>
	<g>
		<g>
			<g>
				<g>
					<g opacity="0.8">
						<g>
							<path fill="#471212" d="M179.967,99.321c4.19-8.958,10.66-17.128,18.884-23.443c8.201-6.318,18.202-10.788,28.947-12.372
								c10.721-1.63,22.124-0.186,32.22,4.141c10.076,4.335,18.976,10.915,25.714,19.899c0.092-0.074,0.227-0.102,0.416-0.048
								c0.903,0.309,2.383,1.842,3.192,3.467c2.416,4.542,4.195,9.466,5.108,14.475c2.358,9.104,2.136,18.276,0.324,26.814
								c1.536-6.828,2.008-13.987,1.146-21.234c-0.319-2.148-0.24-3.97,0.421-3.891c0.635,0.051,1.62,1.98,1.921,4.338
								c1.388,10.181,0.041,20.889-3.549,30.138c-3.529,9.293-9.078,17.013-15,22.372c-6.032,8.104-13.005,15.23-20.06,21.639
								c-7.047,6.448-14.169,12.326-20.79,18.21c-6.619,5.863-12.722,11.755-17.758,17.891c-2.483,3.082-4.802,6.17-6.69,9.359
								c-1.975,3.174-3.848,6.675-5.437,10.073c-0.219,0.564-0.656,1.112-0.995,1.248c-0.385,0.227-0.543-0.02-0.378-0.543
								c1.431-3.71,3.189-7.481,5.177-11.102c1.88-3.549,4.238-7.037,6.858-10.517c5.31-6.938,11.984-13.62,19.256-20.282
								c7.256-6.672,15.105-13.385,22.632-20.805c7.532-7.45,14.694-15.669,20.336-25.16c1.396-2.299,2.631-4.69,3.817-7.096
								c-4.093,6.642-9.088,12.576-14.648,18.077c-0.25,0.847-0.896,2.031-1.914,3.179c-2.373,2.84-4.901,5.539-7.514,8.147
								c0.196-0.018,0.352,0.023,0.452,0.122c0.35,0.406-0.385,1.666-1.648,2.735c-7.019,6.17-14.327,11.737-21.637,17.179
								c-0.166,0.145-0.334,0.263-0.515,0.37c-8.701,7.129-17.202,14.212-24.41,22.109c-7.147,7.78-13.186,16.779-18.085,26.178
								c-4.907,9.443-8.402,19.325-10.545,29.633c-2.176,10.117-2.148,19.805,1.835,26.14c0.35,0.283,0.615,0.865,0.651,1.209
								c0.031,0.406-0.245,0.533-0.643,0.273c-0.163,0.122-0.347,0.385-0.459,0.281c-4.284-4.251-6.565-11.045-6.792-18.733
								c-0.23-7.657,1.291-16.123,3.968-24.443c1.906-5.759,4.294-11.364,7.078-16.748c-3.57,5.19-6.823,10.328-9.877,15.059
								c-2.633,7.609-4.562,15.539-5.547,23.436c-0.931,7.887-0.638,15.883,2.25,23.165l0.048-0.73
								c0.574,1.235,0.957,2.488,0.536,2.789c-0.321,0.367-1.271-0.436-1.975-1.74c-3.97-6.619-5.159-14.73-4.797-22.405
								c0.393-7.774,1.977-15.204,4.113-22.611c4.371-14.799,11.88-28.725,21.473-41.061c9.836-12.589,22.295-22.377,34.249-31.572
								c11.972-9.224,23.675-18.2,32.493-29.105c7.037-8.596,12.257-18.088,14.393-27.962c1.044-4.912,1.304-9.933,0.666-14.709
								c-0.651-4.789-2.202-9.188-4.761-13.37c-1.544-2.426-2.414-4.884-1.49-5.626c0.941-0.745,3.46,0.684,5.246,3.46
								c5.863,8.986,7.29,20.228,5.2,30.96c-2.072,10.772-7.552,20.907-14.758,29.802c-6.315,7.905-13.936,14.699-21.838,21.155
								c6.409-4.759,12.781-9.53,18.687-14.847c8.088-9.012,15.197-19.233,19.093-31.042c2.314-7.014,3.307-14.413,2.516-21.68
								c-0.753-7.267-3.598-14.286-8.045-20.177c-2.199-2.96-4.782-5.646-7.624-8.04c-2.796-2.47-6.111-4.241-9.295-6.208
								c-6.693-3.376-14.169-5.419-21.82-5.45c-7.427-0.074-14.133,2.072-19.861,4.848c-1.391,0.768-2.771,1.531-4.144,2.289
								c-1.25,0.921-2.493,1.835-3.73,2.745c-1.248,0.842-2.337,1.903-3.401,2.95c-1.051,1.064-2.174,1.977-3.105,3.113
								c-7.657,8.841-12.189,19.042-14.003,30.115c-0.151,0.972-0.658,1.949-1.174,2.22c-0.495,0.383-0.814-0.276-0.648-1.222
								c0.186-1.403,0.373-2.799,0.559-4.192c0.105-1.444,0.633-2.735,0.919-4.139c0.546-2.837,1.676-5.432,2.671-8.188
								c2.396-5.215,5.284-10.576,9.479-15.059l1.516-1.771l1.699-1.584c1.158-1.036,2.273-2.205,3.534-3.177
								c1.304-0.942,2.613-1.886,3.927-2.832c1.304-1.033,2.822-1.638,4.271-2.49c5.879-3.12,12.727-5.422,20.198-5.731
								c7.887-0.421,15.985,1.087,23.208,4.506c1.827,0.801,3.478,1.921,5.218,2.893l2.567,1.533
								c0.814,0.574,1.628,1.153,2.414,1.771c3.161,2.442,6.042,5.264,8.573,8.397c5.057,6.244,8.494,14.061,9.415,22.122
								c0.985,8.05-0.166,16.189-2.766,23.772c-0.725,2.049-1.513,4.047-2.386,6.001c3.432-6.162,6.078-12.954,7.246-20.19
								c0.444-7.065-0.454-14.37-3.126-21.203c-2.671-6.805-6.917-12.842-12.025-17.884c-2.582-2.49-5.315-4.866-8.377-6.728
								l-4.524-2.944l-4.919-2.345l-2.483-1.151l-2.62-0.827c-1.755-0.528-3.506-1.118-5.289-1.562
								c-3.641-0.559-7.287-1.365-11.015-1.227c-11.553-0.214-22.624,3.45-31.838,9.298c-9.236,5.917-16.715,13.99-22.428,23.18
								c-1.258,2.432-3.161,4.33-4.07,4.457c-0.482,0.046-0.74-0.464-0.679-1.299C178.895,101.737,179.293,100.591,179.967,99.321z
								 M208.748,214.488c2.761-3.587,5.899-6.892,9.142-10.078c-13.579,11.551-24.599,26.051-32.305,42.192
								C192.186,235.352,199.912,224.112,208.748,214.488z"/>
							<path fill="#471212" d="M186.879,224.977c3.309-4.248,6.741-8.351,10.328-12.587c3.585-4.126,7.134-8.078,10.326-11.984
								c0.299-0.373,0.408-0.684,0.11-0.653c-0.301,0.038-0.765,0.344-1.125,0.776c-3.052,3.784-6.476,7.652-9.956,11.66
								c-3.49,4.116-6.815,8.083-10.02,12.153c-0.367,0.505-0.566,0.987-0.436,1.135
								C186.177,225.651,186.562,225.383,186.879,224.977z"/>
							<path fill="#471212" d="M212.042,194.836c11.255-12,24.012-21.652,34.647-31.623c10.561-9.79,19.476-20.54,23.423-31.975
								c1.61-4.603,2.388-9.293,2.21-13.714c-0.196-4.463-1.204-8.292-3.414-12.16c-2.207-3.835-5.519-7.471-9.545-10.362
								l-3.194-1.972l-1.59-1.008l-1.704-0.714l-3.396-1.452c-1.181-0.296-2.365-0.592-3.554-0.89
								c-6.236-1.365-12.793-0.809-18.016,1.801c-0.457,0.191-0.653,0.505-0.424,0.689c0.265,0.209,0.783,0.186,1.278-0.013
								c5.481-2.136,11.614-2.546,17.488-1.123c1.454,0.408,2.978,0.63,4.358,1.38l2.131,0.929c0.72,0.286,1.437,0.589,2.087,1.077
								l4.036,2.559c1.266,0.941,2.46,1.965,3.562,3.044c4.455,4.371,7.262,9.41,8.129,14.449c0.987,5.231,0.429,11.278-1.457,17.08
								c-3.503,11.229-12.311,22.15-22.979,32.014c-10.716,10.066-23.762,19.843-35.086,32.07c-0.301,0.327-0.357,0.63-0.128,0.651
								C211.207,195.502,211.746,195.158,212.042,194.836z"/>
							<path fill="#471212" d="M263.679,97.984c2.677,2.301,4.975,4.901,6.716,7.683c1.75,2.799,2.891,5.652,3.508,8.902
								c1.235,6.514,0.13,13.916-3.271,20.619c-3.628,7.259-8.499,13.954-14.299,21.435c-7.792,9.979-16.723,18.396-28.495,26.617
								c-0.401,0.258-0.717,0.63-0.707,0.85c0.087,0.145,0.447,0.069,0.852-0.189c12.959-8.724,23.237-18.213,31.603-28.901
								c7.772-9.874,13.592-20.027,15.016-30.549c0.72-5.233,0.314-10.448-1.385-14.919c-1.684-4.483-4.884-8.759-9.111-12.089
								c-0.344-0.299-0.674-0.352-0.801-0.24C263.194,97.371,263.373,97.736,263.679,97.984z"/>
							<path fill="#471212" d="M280.45,168.642c-7.91,9.096-17.256,16.919-25.888,24.145c-8.652,7.218-16.7,14.12-22.471,21.208
								c-0.288,0.401-0.207,0.61,0.14,0.538c0.339-0.069,0.89-0.429,1.169-0.794c5.766-6.925,13.791-13.523,22.354-20.486
								c8.542-6.958,17.779-14.602,25.433-23.607c0.75-0.847,1.156-1.791,0.985-2.082
								C281.935,167.313,281.236,167.772,280.45,168.642z"/>
							<path fill="#471212" d="M187.004,231.397c2.86-4.534,5.999-8.882,9.354-13.043c3.447-4.215,7.17-8.134,11.012-11.821
								c7.7-7.369,15.875-13.76,23.466-20.267c7.823-5.524,15.452-10.959,22.05-17.215c0.985-0.852,1.488-1.837,1.189-2.169
								c-0.311-0.339-1.301,0.094-2.276,0.939c-3.394,2.998-7.091,5.738-10.783,8.573c0.023-0.196-0.026-0.347-0.151-0.447
								c6.33-5.174,12.314-10.372,17.498-15.995c5.197-5.624,9.67-11.668,12.862-18.029c0.362-0.702,0.411-1.342,0.148-1.459
								c-0.276-0.14-0.773,0.311-1.125,0.995c-3.365,6.432-7.989,12.569-13.349,18.322c-5.343,5.743-11.515,11.13-18.044,16.529
								c-0.566,0.291-1.169,0.689-1.753,1.186c-11.102,9.086-22.907,18.034-33.853,29.628c-3.871,4.07-7.695,8.479-11.03,12.832
								c-3.378,4.381-6.588,8.869-9.522,13.546c-5.871,9.331-10.767,19.427-13.86,30.286c-2.375,8.387-3.595,17.501-3.016,27.406
								c0.258,4.156,0.916,8.548,2.419,12.704c1.482,4.169,3.812,7.948,6.688,10.864c4.09,4.077,8.844,6.532,13.337,7.905
								c4.526,1.373,8.872,1.766,13.005,1.72c0.495,0,0.569-0.186,0.25-0.388c-0.24-0.204-0.893-0.378-1.319-0.352
								c-4.095-0.033-8.527-0.674-12.962-2.243c-4.427-1.549-8.841-4.123-12.574-7.563c-2.904-3.746-5.093-8.083-6.427-12.538
								c-1.352-4.46-1.888-8.979-1.96-13.324c-0.112-8.719,1.482-16.791,3.192-24.466
								C173.792,251.62,180.441,241.95,187.004,231.397z"/>
						</g>
					</g>
				</g>
			</g>
		</g>
	</g>
	<g>
		<g>
			<g>
				<g>
					<g opacity="0.8">
						<g>
							<path fill="#471212" d="M169.539,109.743c-6.833-9.846-15.523-17.787-25.709-21.997l-1.901-0.806l-1.965-0.633
								c-1.289-0.498-2.646-0.763-3.988-1.105c-2.71-0.62-5.677-1.013-8.504-1.263c-2.771-0.204-5.547-0.071-8.331,0.227
								c-2.768,0.39-5.524,1.044-8.246,1.949c0.046,0.11,0.064,0.237,0.036,0.378c-0.174,0.648-1.003,1.291-1.893,1.459
								c-2.452,0.704-4.973,1.5-7.353,2.699c-4.103,2.587-7.744,6.21-10.566,10.035c2.286-3.003,5.177-5.879,8.313-8.035
								c0.919-0.691,1.939-0.842,2.227-0.268c0.288,0.546-0.168,1.554-1.079,2.222c-1.909,1.551-3.804,3.289-5.447,5.289
								c-0.434,0.48-0.852,0.977-1.232,1.503l-0.556,0.722l-0.332,0.401l-1.727,3.049c-2.35,4.549-3.973,9.211-5.629,13.742
								c-0.163,11.913,5.192,23.553,13.214,32.057c0.982,1.107,2.003,2.09,3.029,2.998c0.921,0.929,2.233,1.883,3.411,2.812
								c2.309,1.863,4.95,3.674,7.519,5.437c5.289,3.485,10.727,6.675,16.488,9.744c0.475,0.209,0.906,0.62,0.97,0.949
								c0.138,0.37-0.107,0.513-0.546,0.344c-6.269-2.83-12.344-5.922-18.299-9.486l-4.378-2.781
								c-1.467-0.949-2.766-1.937-4.177-2.939c-0.684-0.503-1.411-1.01-2.064-1.526l-1.814-1.569
								c-1.248-1.008-2.373-2.312-3.585-3.493c-4.57-4.988-8.433-10.971-10.831-17.636c-2.34-6.654-3.327-14-2.095-21.17
								c0.209-1.766,0.702-3.462,1.176-5.157c-2.271,4.611-3.738,9.849-4.113,15.449c0.429,0.561,0.778,1.459,0.906,2.529
								c0.145,1.289,0.477,2.554,0.763,3.814c0.25,1.268,0.633,2.508,1.033,3.738c0.092-0.135,0.209-0.225,0.342-0.263
								c0.528-0.107,1.153,0.707,1.406,1.801c1.763,6.124,4.634,11.91,8.144,17.337c0.1,0.122,0.171,0.25,0.232,0.388
								c1.22,1.574,2.493,3.159,3.817,4.595l1.99,2.146l2.258,2.069c2.937,2.773,6.172,5.453,9.397,8.078
								c6.491,5.246,13.357,10.198,20.318,15.296c13.839,10.203,28.38,20.973,40.36,35.703c0.48,0.283,0.901,0.995,0.97,1.419
								c0.092,0.487-0.191,0.605-0.633,0.288c-0.153,0.135-0.314,0.431-0.439,0.309c-10.206-9.645-20.963-16.399-32.021-24.816
								c-3.837-2.845-7.657-5.68-11.459-8.499c3.442,3.498,6.568,7.08,9.043,10.668c9.693,7.461,19.539,15.559,25.964,25.752
								l-0.046-0.589c0.689,0.814,1.028,1.799,0.658,2.118c-0.309,0.37-1.161-0.051-1.868-0.847
								c-15.743-15.659-34.627-27.324-52.844-41.794c-4.562-3.587-9.017-7.455-13.385-11.492c-2.143-2.166-4.345-4.154-6.422-6.542
								c-2.113-2.419-4.008-4.889-5.792-7.478c-7.086-10.331-12.051-22.66-12.834-35.976c-0.301-5.277,0.209-10.609,1.352-15.791
								l1.028-3.845c0.367-1.273,0.885-2.493,1.332-3.738c0.439-1.253,0.949-2.47,1.554-3.636l0.868-1.773
								c0.344-0.663,0.62-1.342,1.084-2.085l2.455-3.447l2.48-3.041l2.677-2.876l2.863-2.694c3.94-3.465,8.364-6.414,13.143-8.693
								c2.855-1.38,5.595-1.406,5.958-0.247c0.334,1.13-1.567,2.899-4.177,4.2c-8.652,4.381-15.784,11.005-21.035,19.116
								c-0.745,1.158-1.153,2.312-1.684,3.355c-0.513,1.072-1.018,2.143-1.385,3.279l-1.199,3.358l-0.888,3.457
								c-1.018,4.634-1.61,9.397-1.332,14.138c0.283,8.354,2.587,16.391,5.983,23.696c-2.358-5.856-3.718-12.14-3.797-18.366
								c-1.414-9.359-0.069-19.509,4.572-28.238c5.846-10.431,15.414-17.409,25.673-21.588c10.408-4.151,21.828-4.695,33.55-2.809
								c11.321,2.011,21.399,6.182,30.141,12.61c8.718,6.399,16.365,14.988,21.019,26.694c0.431,1.021,0.572,2.245,0.286,2.751
								c-0.281,0.469-0.819,0.189-1.253-0.837c-9.663-21.905-28.396-35.757-49.719-38.974c-1.421-0.151-2.832-0.301-4.23-0.449
								c-1.414-0.061-2.814-0.12-4.21-0.181c-1.391-0.056-2.781-0.01-4.154-0.046c-1.365,0.094-2.72,0.117-4.062,0.245
								c-5.371,0.513-10.579,1.738-15.551,3.689c-4.947,2.003-9.629,4.756-13.896,8.18c-2.087,1.763-4.144,3.615-5.971,5.715
								c-0.947,1.005-1.835,2.136-2.661,3.202c-0.827,0.942-1.345,2.258-2.087,3.48c-0.809,1.314-1.286,2.761-1.921,4.144
								c0.653-1.087,1.227-2.189,1.934-3.217l2.156-2.934c0.296-0.457,0.753-0.755,1.146-1.166l1.301-1.268
								c0.919-0.791,1.822-1.577,2.743-2.314c6.236-6.644,14.299-11.219,22.765-13.158c4.235-0.98,8.573-1.324,12.893-1.072
								c4.376,0.301,8.866,1.033,13.033,2.21c6.473,1.985,12.719,4.812,18.157,9.122c2.799,2.046,5.236,4.575,7.591,7.205
								c2.202,2.751,4.325,5.659,5.884,8.912c1.008,1.541,1.072,3.401,0.429,4.014C171.575,112.025,170.396,111.236,169.539,109.743
								z M105.695,174.794c-2.921-1.865-5.664-3.978-8.369-6.167c9.854,9.346,20.693,17.401,31.46,25.717
								C121.616,187.432,113.411,181.066,105.695,174.794z"/>
							<path fill="#471212" d="M111.494,193.15c-5.57-5.353-11.722-10.653-18.195-14.771c-0.316-0.186-0.587-0.217-0.574,0.033
								c0.018,0.253,0.276,0.592,0.63,0.824c6.246,3.914,12.234,9.111,17.552,14.26c0.337,0.296,0.689,0.441,0.837,0.316
								C111.903,193.734,111.762,193.407,111.494,193.15z"/>
							<path fill="#471212" d="M88.503,175.475l-3.927-3.036c-1.306-1.061-2.618-2.437-3.917-3.692
								c-2.498-2.567-4.784-5.277-6.93-8.226c-4.243-5.897-7.741-12.653-10.033-20.116c-2.281-7.45-3.312-15.638-2.633-23.903
								c0.653-8.259,3.075-16.508,6.907-23.803l1.23-2.286l0.768-1.424c0.268-0.556,0.712-1.008,1.018-1.467l1.656-2.169
								c0.49-0.656,1.026-1.273,1.567-1.886c1.072-1.232,2.136-2.457,3.307-3.585c1.128-1.166,2.299-2.281,3.534-3.33
								c4.856-4.264,10.272-7.828,16.097-10.589c5.82-2.768,12.066-4.692,18.488-5.703c6.384-1.038,13.122-1.092,19.302-0.454
								c4.088,0.373,8.382,1.069,12.5,2.115c2.059,0.526,4.121,1.01,6.09,1.687c2.003,0.602,3.983,1.215,5.881,1.931
								c0.643,0.26,1.115,0.219,1.003-0.107c-0.133-0.375-0.75-0.819-1.467-1.12c-3.998-1.6-8.124-2.85-12.288-3.868
								c-2.079-0.505-4.202-0.822-6.295-1.235c-2.072-0.299-4.105-0.477-6.157-0.725c-4.039-0.316-8.369-0.556-12.729-0.189
								c-4.34,0.263-8.68,0.975-12.918,2.087c-8.504,2.174-16.536,6.07-23.568,11.229c-3.501,2.605-6.733,5.537-9.703,8.713
								c-1.416,1.641-2.886,3.253-4.149,5.019l-1.143,1.549c-0.426,0.574-0.99,1.334-1.273,1.99l-1.676,3.228
								c-3.756,7.461-6.136,15.868-6.741,24.293c-0.63,8.428,0.452,16.784,2.819,24.377c2.378,7.603,5.965,14.49,10.323,20.481
								c2.202,3.011,4.519,5.736,7.121,8.361c2.664,2.794,5.317,4.736,7.979,6.741c0.288,0.212,0.559,0.209,0.584,0.003
								C89.082,176.1,88.786,175.682,88.503,175.475z"/>
							<path fill="#471212" d="M109.022,62.153c-4.452,1.34-8.68,3.248-12.653,5.496c-3.988,2.233-7.716,4.858-11.14,7.805
								c-3.432,2.939-6.662,6.121-9.545,9.627c-0.763,0.845-1.426,1.768-2.133,2.661l-1.342,1.763
								c-0.495,0.707-0.771,1.337-1.138,1.954c-1.192,2.146-2.381,4.031-3.345,6.231c-2.345,4.552-3.715,9.535-4.611,14.582
								c-0.63,5.075-0.773,10.303,0.235,15.426c1.243,6.876,3.488,12.852,6.075,18.424c2.61,5.575,5.567,10.78,8.905,16.166
								c0.194,0.373,0.515,0.661,0.732,0.64c0.151-0.082,0.102-0.401-0.089-0.778c-3.473-5.868-6.667-11.66-9.298-17.909
								c-2.608-6.236-4.634-12.974-5.282-20.318c-0.577-6.81,0.222-13.796,2.22-20.328c0.441-1.656,1.036-3.248,1.699-4.812
								c0.635-1.574,1.26-3.151,2.082-4.613l1.186-2.258l0.73-1.373c0.232-0.543,0.663-0.99,0.959-1.437l1.633-2.182
								c0.485-0.671,1.033-1.291,1.569-1.924c8.53-10.135,19.833-17.725,32.81-22.206c0.556-0.168,0.855-0.444,0.837-0.615
								C110.03,61.997,109.517,61.989,109.022,62.153z"/>
							<path fill="#471212" d="M89.128,121.195c-0.515,6.307,1.023,13.298,4.195,19.381c3.23,6.103,7.922,11.229,13.355,14.1
								c0.329,0.148,0.521,0.033,0.482-0.23c-0.036-0.263-0.306-0.63-0.605-0.776c-5.088-2.748-9.504-8.065-12.395-13.893
								c-2.812-5.909-4.151-12.485-3.822-18.414c0.02-0.572-0.209-1.069-0.536-1.146C89.467,120.177,89.179,120.575,89.128,121.195z
								"/>
							<path fill="#471212" d="M116.779,192.726c-6.141-4.861-12.204-9.979-18.131-15.337l-4.414-4.072l-4.373-4.279
								c-1.493-1.332-2.865-3.092-4.315-4.631c-1.327-1.63-2.712-3.197-3.975-4.876c-4.169-6.879-7.517-14.248-9.877-22.088
								c-0.27-1.141-0.847-1.988-1.289-1.891c-0.444,0.094-0.579,1.13-0.301,2.307c0.526,2.046,1.153,4.052,1.771,6.06
								c0.745,1.947,1.355,3.973,2.278,5.833c-0.181-0.054-0.337-0.036-0.464,0.061c-3.217-6.601-5.583-13.819-6.517-21.428
								c-0.954-7.588-0.5-15.526,1.495-23.081c0.24-0.832,0.184-1.533-0.092-1.61c-0.293-0.097-0.717,0.521-0.962,1.363
								c-2.22,7.958-2.705,16.401-1.508,24.362c1.181,7.979,3.837,15.488,7.433,22.27c0.14,0.564,0.375,1.184,0.712,1.791
								c3.202,5.68,6.897,10.622,11.288,15.373c2.166,2.33,4.391,4.202,6.591,6.318c2.235,1.888,4.445,3.866,6.723,5.715
								c12.913,10.624,24.609,20.871,36.216,30.855c2.335,1.954,4.588,3.845,6.989,5.685c2.225,1.937,4.646,3.781,6.659,5.965
								c1.715,1.822,3.396,3.733,4.889,5.669c0.776,0.952,1.562,1.875,2.381,2.745c0.786,0.888,1.533,1.766,2.373,2.546
								c4.705,4.274,8.762,8.351,12.936,12.655c0.25,0.27,0.439,0.23,0.447-0.077c0.046-0.235-0.148-0.676-0.385-0.883
								c-2.156-2.113-3.975-4.457-6.269-6.496l-3.243-3.08c-1.151-0.957-2.322-1.865-3.462-2.733
								c-6.315-8.68-14.225-16.171-23.191-22.599C129.202,204.961,123.943,198.367,116.779,192.726z"/>
						</g>
					</g>
				</g>
			</g>
		</g>
	</g>
	<g>
		<g>
			<g>
				<g>
					<g>
						<path fill="#BE2025" d="M180.314,119.659c0.237,2.148,2.064-0.153,3.725-1.822c-0.801-0.924-1.595-1.88-2.375-2.87
							L180.314,119.659z"/>
						<path fill="#BE2025" d="M184.912,109.769c-0.237-2.108-0.475-4.322-0.357-6.458l-0.367,2.143
							c-0.077,0.73-0.105,1.475-0.153,2.199c-3.371,3.424-2.921-2.039-2.582-3.983C178.831,111.045,183.776,107.866,184.912,109.769
							z"/>
						<path fill="#BE2025" d="M188.055,99.009c2.393-2.728,0.1-3.243-1.421-2.368C187.208,97.384,186.575,99.854,188.055,99.009z"/>
						<path fill="#BE2025" d="M232.847,183.39c1.072-0.237,2.207-0.694,2.424-0.122C235.799,182.109,235.692,181.561,232.847,183.39
							z"/>
						<path fill="#BE2025" d="M235.268,183.268c-0.11,0.217-0.227,0.452-0.365,0.722c0.153-0.174,0.293-0.304,0.449-0.526
							C235.36,183.362,235.294,183.337,235.268,183.268z"/>
						<path fill="#BE2025" d="M303.307,140.168c-0.115-5.498,1.411-8.259,1.263-13.423c0.977-0.86,1.898-1.771,2.837-2.712
							c-0.314-2.904-0.911-3.534-1.533-3.965c-0.64-0.426-1.278-0.661-2.067-2.648c0.727-2.572,0.329-6.644-0.658-10.275
							c-0.947-3.646-2.478-6.79-2.87-7.984c0.508-2.11,2.368,1.47,3.325,2.12c-1.556-3.258-3.031-4.429-4.445-5.751
							c-1.447-1.311-2.827-2.804-4.991-6.233l0.531-0.5c-6.879-7.182-14.72-13.934-23.877-18.611
							c-8.946-4.924-19.506-8.035-29.322-7.621c1.296,0.242,0.911,0.804,1.355,1.385c-10.03-0.602-20.876,1.337-29.682,5.945
							c-8.849,4.516-15.467,11.502-18.289,18.532c1.505-1.857,3.891-3.399,6.277-5.172c1.266-0.799,2.664-1.493,4.026-2.256
							c1.37-0.763,2.745-1.541,4.238-2.115c1.457-0.635,2.893-1.291,4.284-1.99c1.434-0.602,2.873-1.135,4.22-1.794
							c2.661-1.434,5.284-2.429,7.453-4.205c0.492,0.125,0.995,0.174,1.505,0.168c0.521,0.051,1.049,0.051,1.579,0.018
							c1.059-0.066,2.128-0.265,3.141-0.431c1.013-0.145,1.962-0.344,2.763-0.189c0.801,0.161,1.439,0.503,1.812,1.176
							c1.717,0.179,3.297,0.263,4.784,0.278c1.475,0.181,2.86,0.319,4.202,0.378c1.329,0.11,2.659-0.033,3.891,0.153
							c1.263,0.112,2.495,0.222,3.728,0.332c1.232,0.135,2.546,0.102,3.779,0.401c1.243,0.268,2.523,0.566,3.858,0.929
							c1.304,0.411,2.789,0.674,4.113,1.416c1.36,0.679,2.784,1.459,4.271,2.375c1.429,1.454-0.13,2.011-0.36,3.33
							c-3.258-1.452-6.284-3.177-9.703-4.024l2.628,1.755l2.388,2.079c-0.72-0.1-1.569-0.431-2.467-0.845
							c-0.911-0.39-1.962-0.691-2.921-1.021c-1.947-0.62-3.707-0.995-4.44-0.028c2.156,0.23,4.626,0.799,7.08,1.773
							c2.33,1.212,4.835,2.493,7.142,4.014c4.608,3.118,8.453,6.833,12.15,9.004c-1.773-3.386-5.511-6.358-8.782-9.267
							c-0.939-1.906-3.126-4.149-2.268-5.055c6.547,2.153,11.574,6.386,15.531,11.464c3.947,5.113,6.866,11.267,8.989,18.366
							c1.151,3.567,1.243,8.616-0.02,9.219c-0.564-2.307-1.467-0.508-2.22-2.322c0.709,2.378,1.817,2.488,2.773,2.87
							c0.916,0.378,1.781,1.105,1.342,4.856c-1.434-0.406-2.87-0.791-4.31-1.148c2.233,1.482,1.88,3.753,1.072,6.106
							c-0.809,2.381-2.016,4.817-1.442,7.578c-2.204,1.212-2.131-2.174-1.564-5.817c-1.61,3.929,0.702,4.922-0.406,8.221
							c-0.811-1.419-1.704-2.799-2.638-4.121c1.283,2.161,0.543,3.667-0.607,4.705c-1.212,1.033-2.906,1.6-3.812,2.24
							c0.732,0.584,4.116-0.018,2.087,3.945c-1.266,1.495-1.681,0.202-2.35,0.362c0.709,0.605,1.531,2.817,0.125,5.432
							c-1.334-0.171-0.669-2.62-1.704-3.381c-0.957,1.898-1.676,3.526-3.365,4.266c-1.225,3.702,1.653,0.776,1.47,3.47
							c-4.131,4.315-3.855-1.998-7.234-1.817c1.038-4.366,3.105-9.04,3.11-11.354c-0.791,2.368-1.809,4.697-2.909,7.027
							c-0.99-1.141-4.914,2.756-3.888-1.268c-5.085,5.2-9.982,12.839-14.875,18.71c1.118-0.332,2.342-1.026,2.802-0.199
							c-2.314,3.279-3.256,1.597-4.537,1.329c-1.528,2.656,0.337,4.381,0.105,6.986c-6.124,2.256-6.052,3.774-12.112,4.544
							l1.783,1.817c-4.246,0.638-2.398,4.024-6.583,5.279c-0.505-0.301,0.373-1.753,1.033-2.975
							c-2.419,2.825-3.95,0.281-6.236,3.192l0.6-3.947c-2.22,1.763-5.077,4.988-5.33,2.179c-2.278,5.284-10.124,9.877-13.967,15.47
							l-1.105-1.931c-0.429,2.09-2.761,4.164-4.988,6.312c-2.207,2.182-4.289,4.46-4.121,6.657l-0.998-0.232
							c-0.862,2.312-1.554,4.756-2.256,7.065c-2.072,2.187-4.026-0.64-3.457,0.112c-3.697,5.644-6.422,10.081-9.673,13.173
							c1.878,2.472-1,8.808-3.036,13.936c-3.307,5.764-5.968,12.079-7.856,18.654c-1.852,6.473-3.166,13.383-3.177,20.476
							c0.018,7.063,1.597,14.424,5.302,20.409c1.883,2.952,4.116,5.562,6.705,7.665c2.605,2.062,5.427,3.613,8.298,4.674
							c1.625,0.824,3.955,0.959,6.325,0.735c2.383-0.212,4.807-0.76,6.968-1.016c-2.386-0.898-3.71-1.115-5.088-1.266
							c-1.355-0.179-2.781-0.273-4.988-1.332c-2.934-2.355-2.319-5.715-2.883-8.632c-0.25,0.878-0.447,1.776-0.617,2.717
							c-2.291-0.582-2.574-1.462-2.791-2.069c-0.232-0.666-0.37-1.031-2.375-1.761l3.337-2.187c-2.378,0.321-2.319-3.1-1.681-4.404
							c-0.993,0.069-1.975,0.082-2.939,0.041c0.528-2.95,0.998-4.72,3.335-5.805l-2.457,0.62c0.668-0.579,0.324-2.998,0.6-5.07
							c0.304-2.097,1.005-3.549,3.08-1.878c-0.551-0.755-1.781-1.584-1.309-3.314l2.534,0.038c-0.385-2.485-0.204-5.56,1.329-5.983
							c0.304,1.518,1.291,2.187,2.286,2.832c1.291-5.134-0.37-6.374-2.363-7.346c-1.937-0.962-4.075-1.947-2.557-7.126l1.513,0.628
							l-0.76-3.133l2.927-1.952c-1.901-2.786-0.319-6.356,1.934-9.864c2.243-3.541,5.111-6.986,5.608-10.558
							c1.013-2.48,5.598-3.496,8.201-7.56l-2.207-1.255c2.222-0.867,5.93-3.904,9.981-6.129c4.039-2.304,8.642-3.927,11.857-2.929
							c1.393-3.802-0.653-0.158-1.901-1.676c1.755-3.312,3.467-4.322,5.174-4.613c1.689-0.301,3.368,0.082,5.333-0.513
							c2.74-3.769-3.284,1.378-2.574-1.602c6.634-2.784,2.531-5.935,10.706-9.964c1.569,0.6-1.296,2.184-1.454,3.478
							c3.427-5.805,14.232-11.614,21.815-18.595c5.047-3.026,11.135-7.573,17.039-13.087c5.937-5.478,11.701-12.018,16.582-18.56
							l-0.656-0.699c2.61-2.378,4.248-5.598,5.491-9.157c1.299-3.547,2.189-7.374,3.661-11.326
							C304.894,137.846,304.095,139.012,303.307,140.168z"/>
						<path fill="#BE2025" d="M250.518,81.026l0.186,2.278h1.329l1.289,0.186l2.636,0.383
							C254.698,81.503,253.185,82.123,250.518,81.026z"/>
						<path fill="#BE2025" d="M253.728,75.14l-3.266,0.092c1.584,0.452,3.235,0.74,4.779,1.329
							C254.777,76.005,254.251,75.592,253.728,75.14z"/>
						<path fill="#BE2025" d="M283.647,133.802l0.521-0.617c0.316-3.615,0.222-7.205-0.235-10.66
							C284.254,126.206,284.208,130.01,283.647,133.802z"/>
						<path fill="#BE2025" d="M231.872,181.395c0.35-1.666,2.085-2.36,2.654-3.756l-3.46,3.929L231.872,181.395z"/>
						<path fill="#BE2025" d="M185.452,210.9c1.63,4.156-2.773,3.45,1.806,3.317C188.915,211.097,185.843,212.495,185.452,210.9z"/>
						<path fill="#BE2025" d="M182.232,224.796c1.212-1.559,1.355-2.791,1.521-4.011
							C180.832,221.941,182.416,223.171,182.232,224.796z"/>
					</g>
				</g>
			</g>
		</g>
	</g>
	<g>
		<g>
			<g>
				<g>
					<g>
						<path fill="#BE2025" d="M181.569,119.197c1.12,1.327,1.832-0.86,2.319-2.916c-1.156-0.273-2.304-0.521-3.447-0.742
							L181.569,119.197z"/>
						<path fill="#BE2025" d="M179.951,110.644c-1.554-0.985-3.131-1.88-4.649-2.72l2.633,2.199
							c-0.304,3.73-3.378,0.786-4.409-0.031c1.396,2.258,2.455,2.409,3.457,1.96C177.999,111.611,178.938,110.534,179.951,110.644z"
							/>
						<path fill="#BE2025" d="M174.152,103.969c-1.107-2.49-2.608-0.727-2.633,0.518
							C172.422,104.171,174.055,105.294,174.152,103.969z"/>
						<path fill="#BE2025" d="M79.126,157.737c-0.089-0.949-0.293-1.993,0.283-2.159C78.442,155.04,77.827,155.14,79.126,157.737z"
							/>
						<path fill="#BE2025" d="M79.409,155.579c0.184,0.107,0.383,0.222,0.61,0.352c-0.135-0.143-0.23-0.27-0.408-0.418
							C79.514,155.5,79.478,155.558,79.409,155.579z"/>
						<path fill="#BE2025" d="M99.107,107.289c-0.176-1.416-0.462-1.299-0.278-1.562c0.383-0.61,0.936-1.258,1.314-2.212
							c0.916,0.265,1.817,0.549,2.697,0.85c0.737-2.062-1.061-2.146-0.97-4.256c1.329-0.1,2.414-1.135,3.411-2.125
							c0.959-1.026,1.824-2.005,2.222-2.256c1.204,0.656,0.304,1.845,0.521,2.628c0.671-1.092,0.707-2.046,0.857-3.044
							c0.14-1.013,0.49-1.911,1.891-2.694l0.373,0.612c2.475-3.401,6.677-5.473,11.237-6.506c2.34-0.395,4.603-0.773,7.218-0.753
							c2.546-0.048,5.182-0.084,7.593-0.036c-0.6-0.283-0.309-0.783-0.439-1.357c5.21,0.72,10.55,2.781,15.659,5.248
							c5.154,2.455,10.048,5.351,15.49,7.384c-2.307-2.414-4.539-6.417-7.803-9.701c-3.23-3.238-7.387-5.713-11.4-5.123
							c-0.663-1.408-2.25-1.801-3.549-2.271c-1.327-0.426-2.48-0.725-2.559-2.179c-1.102-0.564-2.184-0.921-3.233-1.12
							c-1.044-0.222-2.026-0.393-2.98-0.441c-1.939,0.028-3.682,0.181-5.391,0.566c-3.455,0.661-6.517,1.852-10.78,2.409
							c-1.299-0.301-0.898-1.666-1.459-2.845c2.347-0.788,4.792-1.429,7.305-1.824c-1.533-0.424-3.09-0.577-4.687-0.852
							c1.947-1.406,6.973-0.564,7.688-2.819c-3.598,1.232-8.017,1.531-12.265,2.567c-4.233,0.964-8.19,2.753-10.117,5.455
							c2.656-0.577,5.58-2.327,8.752-2.83c0.776,0.263,1.707,0.434,2.444,0.702c0.745,0.309,1.296,0.72,1.327,1.355
							c-3.911,2.485-7.2,4.036-10.563,5.708c-3.317,1.674-6.688,3.531-9.548,6.624c-1.447,1.508-3.554,3.348-4.708,2.74
							c0.681-1.311-0.809-1.276-0.375-2.536c-1.467,2.947,2.952,3.404-0.265,6.172l-2.952-3.284
							c1.169,2.222,0.171,3.072-1.107,4.044c-0.314,0.25-0.638,0.508-0.962,0.765c-0.291,0.23-0.564,0.462-0.791,0.73
							c-0.398,0.561-0.546,1.329-0.314,2.347c-1.036,0.12-1.556-0.385-1.674-1.243c-0.089-0.855,0.033-2.011,0.74-2.973
							c-1.158,0.85-0.99,1.824-0.85,2.661c0.156,0.88,0.439,1.704-0.094,2.692c-0.816-1.143-1.61-2.335-2.381-3.575
							c2.011,3.756-2.462,3.825-4.182,4.914c0.832,0.464,3.858,0.191,2.677,3.064c-0.819,1.151-1.533,0.225-2.128,0.383
							c0.86,0.449,2.064,1.967,1.75,3.945c-1.304,0.11-1.564-1.753-2.717-2.204c-0.365,1.595-0.27,2.937-1.536,3.932
							c0.526,2.998,1.766,0.102,2.865,1.99c-0.64,2.034-1.732,2.074-3.003,1.717c-1.271-0.347-2.72-1.143-4.121-0.39
							c-0.352-0.944-0.635-1.97-0.827-3.006c-0.135-1.028-0.212-2.074-0.27-3.072c-0.174-2.011-0.01-3.766-0.212-4.896
							c-0.429,2.447-0.5,4.935-0.602,7.369c-1.48-0.74-3.036,4.733-4.052,0.546c-1.12,3.751-1.306,8.142-0.587,12.291
							c0.171,1.038,0.367,2.069,0.577,3.082c0.291,0.987,0.582,1.97,0.868,2.937c0.549,1.929,1.324,3.7,2.016,5.348
							c0.26-1.097,0.273-2.398,1.222-2.391c1.653,3.256-0.219,3.32-1.036,4.325c1.766,2.296,4.088,1.255,6.323,2.136
							c-0.166,2.779,0.255,4.243,0.447,5.675c0.291,1.401,0.418,2.74,0.033,5.498l2.125-1.391c-0.255,3.718,3.174,2.352,3.695,5.899
							c-0.357,0.444-1.602-0.304-2.659-0.913c2.314,2.125-0.344,3.541,2.156,5.511c-1.25-0.105-2.442-0.283-3.674-0.467
							c1.375,2.077,4.284,4.419,1.569,4.822c1.207,0.469,2.35,1.227,3.536,2.143c1.163,0.875,2.266,2.105,3.399,3.008
							c2.253,1.909,4.463,4.19,6.835,5.231l-1.766,1.332c1.857-0.054,3.529,1.595,5.225,3.169c1.725,1.498,3.467,2.924,5.33,2.46
							l-0.311,0.913c1.888,0.398,3.792,0.691,5.675,1.018c1.531,1.641-1.166,3.664-0.441,3.082c4.126,2.725,7.198,4.986,8.889,7.82
							c2.457-1.783,6.884,0.811,10.209,3.054c13.834,13.571,30.386,24.66,42.23,38.586c1.582,2.131,5.917,4.052,8.856,6.636
							c-1.309-4.154-2.697-3.947-4.73-7.598c-0.977-3.057,1.044-5.69,1.038-9.122c-0.398,0.842-0.832,1.702-1.283,2.559
							c-4.085-2.503-0.646-3.243-4.656-4.613l3.299-2.24c-2.322,0.158-2.893-3.23-2.927-4.876l-2.86,0.855
							c-0.551-3.128-1.291-4.891-0.013-7.172l-1.702,1.88c0.242-0.913-1.613-2.842-2.858-4.603c-1.273-1.704-1.985-3.233,0.725-3.58
							c-0.985-0.174-2.429,0.227-3.475-1.222l1.574-1.985c-2.268-1.401-4.685-2.883-4.256-4.435c1.419,0.49,2.518,0,3.615-0.495
							c-7.688-7.639-7.223,4.424-14.314-1.472l1.148-1.169l-2.888-0.212l-0.526-3.128c-6.078,2.148-9.484-8.468-15.503-9.532
							c-1.947-0.977-1.939-5.277-5.228-7.499l-1.411,2.097c-0.824-4.003-8.65-12.872-6.363-18.999
							c-3.34-0.498-0.158,0.579-1.577,1.98c-5.851-1.903-3.031-4.963-3.802-7.823c-3.075-1.375,0.931,2.34-1.618,2.434
							c-1.064-2.401-1.939-2.47-3.238-2.745c-1.248-0.204-2.643-0.745-3.582-3.511c0.857-1.232,1.638,0.628,2.738,0.533
							c-4.404-1.651-6.879-8.874-8.861-13.926c-0.217-3.284-0.35-7.111,0.097-10.78c0.439-3.672,1.577-7.162,3.368-9.76
							l-0.852-0.329c1.5-0.919,1.804-2.092,2.25-3.378c0.194-0.646,0.281-1.347,0.635-1.983c0.156-0.324,0.327-0.643,0.528-0.952
							c0.12-0.196,0.174-0.225,0.235-0.263c0.061-0.028,0.145-0.115,0.204-0.082C100.258,106.98,99.778,106.944,99.107,107.289z"/>
						<path fill="#BE2025" d="M131.557,68.401l-0.666-2.205c-1.684,0.301-3.394,0.768-5.062,1.253
							C127.827,69.187,128.878,67.697,131.557,68.401z"/>
						<polygon fill="#BE2025" points="130.016,74.847 132.407,74.048 128.656,73.88 						"/>
						<path fill="#BE2025" d="M80.869,97.598l0.569-0.39c0.873-3.108,2.363-5.7,3.794-8.435c-0.829,1.411-1.692,2.776-2.409,4.223
							l-1.125,2.225C81.325,96.001,81.132,96.843,80.869,97.598z"/>
						<path fill="#BE2025" d="M77.067,158.561c-1.574-0.365-1.906-2.059-3.161-2.717c1.074,1.174,2.074,2.378,3.22,3.455
							L77.067,158.561z"/>
						<path fill="#BE2025" d="M99.681,195.773c3.705-1.932,2.36,2.064,3.044-1.98C100.421,192.685,101.061,195.242,99.681,195.773z"
							/>
						<path fill="#BE2025" d="M110.362,197.306c-0.998-0.975-1.96-1.018-2.919-1.059
							C107.767,198.748,109.083,197.25,110.362,197.306z"/>
					</g>
				</g>
			</g>
		</g>
	</g>
	<g>
	</g>
	<g>
	</g>
	<g>
	</g>
	<g>
	</g>
	<g>
	</g>
	<g>
	</g>
</g>
</svg>
