<svg version="1.1" id="Layer_1" xmlns="http://www.w3.org/2000/svg" xmlns:xlink="http://www.w3.org/1999/xlink" x="0px" y="0px" width="144px" height="144px" viewBox="0 0 144 144" enable-background="new 0 0 144 144" xml:space="preserve">
<g>
	<g>
		<g>
			<g>
				<g opacity="0.7">
					<g>
						<g>
							<path fill="#080808" d="M74.91,115.111c-0.43-0.806-0.954-1.543-1.417-2.363c-0.502-0.875-0.393-1.881-0.196-2.812         c0.215-0.953,0.491-1.853,0.339-2.925c-0.345-2.754,1.676-5.279,2.22-8.106c0.534-2.662,1.311-5.398,2.492-7.994         c1.179-2.582,2.765-5.058,4.83-6.987c3.849-3.622,8.066-6.463,12.481-9.27c4.419-2.826,9.045-5.498,13.916-9.078         c2.806-2.084,5.633-4.815,7.872-8.313c2.24-3.47,3.807-7.767,3.992-12.152c0.073-1.594,0.095-3.631-0.26-5.898         c-0.333-2.247-1.11-4.783-2.301-6.972c-2.361-4.431-6.081-7.337-8.644-8.133c2.978,1.766,5.634,4.455,7.398,7.811         c0.879,1.668,1.529,3.518,1.878,5.356c0.349,1.836,0.42,3.645,0.3,5.36c-0.109-1.876-0.418-3.78-1.014-5.645         c-0.582-1.876-1.466-3.662-2.516-5.259c-2.132-3.184-4.92-5.744-8.074-7.496l-1.174-0.671l-0.588-0.329l-0.63-0.263         c-0.841-0.348-1.684-0.684-2.524-1.007c-1.758-0.472-3.507-0.935-5.309-1.016c-3.568-0.266-7.114,0.299-10.205,1.607         c2.925-1.136,6.156-1.631,9.4-1.484c3.263,0.154,6.43,1.199,9.313,2.646c1.365,0.845,2.776,1.617,4.007,2.673         c1.243,1.031,2.39,2.192,3.396,3.485c2.015,2.556,3.466,5.754,3.905,9.004c0.457,3.233,0.056,6.394-0.901,9.235         c-0.96,2.846-2.477,5.352-4.252,7.482c-3.593,4.271-8.13,7.036-12.772,9.014c2.404-1.565,4.802-3.287,7.048-5.36         c2.241-2.065,4.325-4.477,5.92-7.326c1.587-2.837,2.673-6.142,2.753-9.647c0.041-1.746-0.159-3.538-0.679-5.277         c-0.518-1.738-1.335-3.392-2.365-4.889c-1.031-1.499-2.277-2.836-3.656-4.001c-0.679-0.601-1.433-1.091-2.193-1.571         c-0.761-0.478-1.492-1.007-2.335-1.34c-3.214-1.608-6.876-2.35-10.352-2.03c-3.479,0.283-6.732,1.503-9.383,3.291         c-2.648,1.796-4.77,4.096-6.07,6.659c-0.815,1.532-1.396,3.368-1.477,4.831c0.917-5.373,5.267-10.718,11.471-13.096         c3.084-1.206,6.625-1.524,10.031-0.897c3.426,0.609,6.623,2.236,9.331,4.373c2.666,2.202,4.797,5.107,5.829,8.341         c1.033,3.237,0.891,6.641,0.034,9.674c-0.871,3.046-2.428,5.746-4.301,8.053c-1.876,2.314-4.052,4.27-6.306,5.982         c-4.14,3.141-8.837,5.683-13.634,8.72c-2.395,1.524-4.824,3.171-7.169,5.113c-1.168,0.98-2.323,2.006-3.42,3.137         c-1.1,1.1-2.172,2.364-3.108,3.557c-2.214,2.537-4.182,5.346-5.856,8.339c-1.718,3.064-3.136,6.382-4.119,9.807         c-0.945,3.333-1.737,7.066-1.395,11.274c0.156,1.847,0.588,4.209,1.709,6.532c0.27,0.581,0.58,1.15,0.942,1.696         c0.333,0.562,0.744,1.07,1.15,1.574c0.831,1.019,1.855,1.934,2.887,2.621c2.089,1.396,4.232,1.968,5.92,2.014         c1.703,0.036,2.995-0.418,3.744-1.219c-1.81-0.514-4.052-0.797-5.615-2.03c0.805,0.077,1.705,0.057,2.531,0.138         c-0.717-0.271-1.413-0.752-2.138-0.933c0.614,0.14,1.257,0.183,1.614-0.072c-0.742-0.442-2.088-0.615-2.816-0.9         c-0.213-0.07-0.845-0.247-1.464-0.544c-0.621-0.289-1.206-0.71-1.335-0.997c1.537,0.838,3.408,1.445,4.77,1.212         c-0.374-0.25-0.775-0.457-1.07-0.785c0.622,0.069,1.562,0.48,2.009,0.191c-0.934-0.441-1.832-0.781-2.594-1.542         c-0.614-0.612-0.994-1.285-1.614-1.902c0.807,0.716,1.827,1.546,2.72,1.458c-0.197-0.385-0.554-0.609-0.871-0.886         c0.08-0.001,0.152-0.023,0.215-0.064c-0.12-0.134-0.201-0.364-0.325-0.515c0.081-0.065,0.139-0.157,0.246-0.191l-0.187,0.122         "/>
							<path fill="#080808" d="M70.458,121.029c-1.226-1.158-2.495-3.083-2.879-4.523"/>
							<path fill="none" stroke="#080808" stroke-width="0" d="M104.756,60.302c0,0,0.729-0.611,1.912-1.819         c1.175-1.21,2.818-3.034,4.314-5.599c1.478-2.547,2.823-5.913,2.898-9.79c0.041-1.925-0.246-3.953-0.994-5.888         c-0.737-1.938-1.943-3.772-3.456-5.36c-3.027-3.183-7.319-5.417-11.714-5.884c-2.19-0.344-4.396-0.03-6.458,0.387         c-2.036,0.613-3.976,1.362-5.599,2.527c-3.311,2.194-5.562,5.249-6.592,8.161c-1.06,2.926-0.897,5.655-0.186,7.575"/>
						</g>
						<path fill="none" stroke="#080808" stroke-width="0" d="M115.092,35.003c0,0-0.152-0.399-0.513-1.095        c-0.359-0.696-0.934-1.689-1.809-2.818c-0.88-1.121-2.06-2.377-3.582-3.555c-0.747-0.611-1.629-1.115-2.542-1.656        c-0.463-0.26-0.912-0.563-1.417-0.794c-0.514-0.212-1.039-0.428-1.573-0.648c-2.124-0.904-4.609-1.312-7.136-1.426        c-0.633,0.039-1.272,0.079-1.917,0.119l-0.96,0.074l-0.951,0.197c-0.633,0.138-1.266,0.269-1.891,0.43        c-0.605,0.225-1.213,0.452-1.824,0.679c-0.611,0.204-1.183,0.515-1.747,0.832c-0.559,0.324-1.136,0.594-1.656,0.971        c-1.033,0.769-2.056,1.495-2.898,2.435c-0.907,0.843-1.62,1.874-2.302,2.844c-0.353,0.472-0.591,1.048-0.869,1.556        c-0.251,0.534-0.548,1.007-0.708,1.575"/>
					</g>
				</g>
			</g>
		</g>
	</g>
</g>
<g>
	<g>
		<g>
			<g>
				<g opacity="0.7">
					<g>
						<g>
							<path fill="#080808" d="M68.604,83.832c-0.468-0.904-1.265-1.562-2.009-2.172c-0.789-0.653-1.233-1.462-1.654-2.325         c-0.419-0.865-0.9-1.665-1.777-2.163c-2.182-1.228-3.094-3.729-5.275-5.015c-3.98-2.3-8.279-4.217-11.248-7.566         c-0.69-0.782-1.37-1.553-2.043-2.317c-0.65-0.764-1.293-1.521-1.932-2.272c-0.577-0.759-1.209-1.497-1.728-2.236         l-0.714-1.106l-0.663-1.166c-1.649-3.127-2.556-6.623-1.988-9.844c0.316-1.862,0.854-3.605,1.559-5.185         c0.358-0.792,0.728-1.558,1.148-2.307l0.292-0.516c0.057-0.119,0.036-0.054,0.08-0.119c0.243-0.359,0.505-0.697,0.757-1.04         c0.734-1.02,2.24-2.175,3.745-3.07c1.519-0.904,3.017-1.572,3.948-2.553c-1.377,0.521-2.718,1.012-4.112,1.583         c-1.384,0.576-2.822,1.252-4.144,2.15c2.244-2.613,5.403-4.397,8.807-5.008c0.425-0.089,0.861-0.118,1.294-0.192         c0.442-0.014,0.867-0.075,1.329-0.076c0.926-0.008,1.876,0.025,2.797,0.092c1.808,0.153,3.617,0.54,5.408,1.177         c-1.64-0.661-3.305-1.081-4.967-1.317c-1.666-0.22-3.472-0.334-5.045-0.21c-3.223,0.234-6.365,1.254-9.261,3.084         c-0.364,0.225-0.727,0.456-1.073,0.715c-0.362,0.241-0.703,0.509-1.045,0.783c-0.357,0.26-0.673,0.563-1.014,0.85         c-0.174,0.141-0.333,0.295-0.492,0.451l-0.242,0.232l-0.202,0.171c-0.129,0.09-0.226,0.246-0.359,0.394l-0.419,0.533         c-0.302,0.35-0.535,0.732-0.792,1.112c-0.542,0.751-0.968,1.569-1.415,2.408c-1.717,3.379-2.57,7.495-2.569,11.854         c-0.494-2.375-0.655-4.901-0.368-7.401c0.282-2.5,1.023-4.957,2.174-7.171c0.577-1.09,1.243-2.198,1.997-3.099         c0.803-0.926,1.735-1.752,2.666-2.529c1.91-1.519,4.023-2.713,6.239-3.492c2.208-0.795,4.508-1.164,6.779-1.185         c2.277,0.025,4.612,0.3,6.771,0.861c4.373,1.133,8.4,3.471,12.083,6.457c0.587,0.435,1.141,0.958,1.766,1.432         c0.597,0.49,1.171,0.989,1.738,1.403c-3.641-3.584-7.495-6.526-11.769-8.445c-2.134-0.956-4.356-1.641-6.67-2.013         c-2.337-0.368-4.7-0.545-7.073-0.235c-4.75,0.547-9.482,2.887-13.115,6.562c-3.552,3.916-5.354,9.316-5.261,14.571         c0.065,4.813,1.552,9.648,4.122,13.828c0.644,1.045,1.415,2.169,2.154,3.026l1.139,1.368         c0.384,0.439,0.771,0.845,1.162,1.266c1.558,1.685,3.216,3.196,4.912,4.629c1.719,1.697,3.498,3.276,5.234,4.804         c3.555,3.146,7.051,6.083,10.165,9.024c1.441,1.291,3.106,3.228,4.859,4.816c0.788,0.837,1.76,1.526,2.613,2.088         c0.887,0.545,1.86,0.878,2.896,0.841c-0.486-1.22-1.462-2.325-1.933-3.495c0.526,0.236,1.216,0.482,1.666,0.895         c-0.242-0.491-0.491-1.055-0.931-1.387c0.389,0.259,0.822,0.512,1.242,0.468c-0.267-0.628-1.235-1.159-1.696-1.474         c-0.249-0.214-1.82-0.816-1.911-1.22c0.588,0.204,1.213,0.481,1.848,0.742c0.6,0.283,1.212,0.551,1.812,0.704         c-0.169-0.333-0.408-0.62-0.527-0.973c0.518,0.201,1.097,0.889,1.606,0.864c-0.555-0.777-1.146-1.398-1.717-2.184         c-0.446-0.651-0.809-1.272-1.412-1.76c0.796,0.525,1.701,1.38,2.594,1.555c-0.125-0.431-0.461-0.753-0.778-1.068         c0.082,0.008,0.158-0.007,0.225-0.041c-0.122-0.155-0.198-0.42-0.339-0.571c0.081-0.066,0.135-0.161,0.245-0.192         l-0.187,0.122"/>
							<path fill="#080808" d="M63.466,89.033c-0.513-0.631-1.2-1.536-1.544-2.23"/>
							<path fill="none" stroke="#080808" stroke-width="0" d="M30.455,46.19c0,0,0.004-0.206,0.01-0.597         c0.024-0.391-0.024-0.958,0.066-1.69c0.084-1.455,0.412-3.555,1.247-5.94c0.106-0.297,0.214-0.6,0.324-0.91         c0.137-0.299,0.276-0.604,0.418-0.915c0.145-0.308,0.278-0.629,0.44-0.941c0.173-0.306,0.35-0.617,0.529-0.934         c0.743-1.384,1.797-2.468,2.916-3.609c2.272-2.231,5.202-4.209,8.59-5.341c6.802-2.312,14.914-0.979,20.91,2.906         c3.026,1.888,5.579,4.234,7.778,6.549c2.182,2.332,4.01,4.655,5.746,6.609"/>
						</g>
						<path fill="none" stroke="#080808" stroke-width="0" d="M42.501,29.614c0,0,0.223-0.122,0.651-0.308        c0.417-0.209,1.043-0.468,1.83-0.78c1.59-0.567,3.878-1.256,6.684-1.345c2.857-0.077,6.174,0.148,9.57,1.335        c1.7,0.581,3.438,1.344,5.159,2.297c1.705,0.968,3.398,2.104,5.067,3.369"/>
					</g>
				</g>
			</g>
		</g>
	</g>
</g>
<g>
	<g>
		<g>
			<g>
				<g opacity="0.8">
					<g>
						<path fill="#1d1d1d" d="M72.484,34.992c1.642-3.511,4.178-6.713,7.401-9.188c3.214-2.476,7.134-4.228,11.345-4.849        c4.202-0.639,8.671-0.073,12.628,1.623c3.949,1.699,7.437,4.278,10.078,7.799c0.036-0.029,0.089-0.04,0.163-0.019        c0.354,0.121,0.934,0.722,1.251,1.359c0.947,1.78,1.644,3.71,2.002,5.673c0.924,3.568,0.837,7.163,0.127,10.509        c0.602-2.676,0.787-5.482,0.449-8.322c-0.125-0.842-0.094-1.556,0.165-1.525c0.249,0.02,0.635,0.776,0.753,1.7        c0.544,3.99,0.016,8.187-1.391,11.812c-1.383,3.642-3.558,6.668-5.879,8.768c-2.364,3.176-5.097,5.969-7.862,8.481        c-2.762,2.527-5.553,4.831-8.148,7.137c-2.594,2.298-4.986,4.607-6.96,7.012c-0.973,1.208-1.882,2.418-2.622,3.668        c-0.774,1.244-1.508,2.616-2.131,3.948c-0.086,0.221-0.257,0.436-0.39,0.489c-0.151,0.089-0.213-0.008-0.148-0.213        c0.561-1.454,1.25-2.932,2.029-4.351c0.737-1.391,1.661-2.758,2.688-4.122c2.081-2.719,4.697-5.338,7.547-7.949        c2.844-2.615,5.92-5.246,8.87-8.154c2.952-2.92,5.759-6.141,7.97-9.861c0.547-0.901,1.031-1.838,1.496-2.781        c-1.604,2.603-3.562,4.929-5.741,7.085c-0.098,0.332-0.351,0.796-0.75,1.246c-0.93,1.113-1.921,2.171-2.945,3.193        c0.077-0.007,0.138,0.009,0.177,0.048c0.137,0.159-0.151,0.653-0.646,1.072c-2.751,2.418-5.615,4.6-8.48,6.733        c-0.065,0.057-0.131,0.103-0.202,0.145c-3.41,2.794-6.742,5.57-9.567,8.665c-2.801,3.049-5.168,6.576-7.088,10.26        c-1.923,3.701-3.293,7.574-4.133,11.614c-0.853,3.965-0.842,7.762,0.719,10.245c0.137,0.111,0.241,0.339,0.255,0.474        c0.012,0.159-0.096,0.209-0.252,0.107c-0.064,0.048-0.136,0.151-0.18,0.11c-1.679-1.666-2.573-4.329-2.662-7.342        c-0.09-3.001,0.506-6.319,1.555-9.58c0.747-2.257,1.683-4.454,2.774-6.564c-1.399,2.034-2.674,4.048-3.871,5.902        c-1.032,2.982-1.788,6.09-2.174,9.185c-0.365,3.091-0.25,6.225,0.882,9.079l0.019-0.286c0.225,0.484,0.375,0.975,0.21,1.093        c-0.126,0.144-0.498-0.171-0.774-0.682c-1.556-2.594-2.022-5.773-1.88-8.781c0.154-3.047,0.775-5.959,1.612-8.862        c1.713-5.8,4.656-11.258,8.416-16.093c3.855-4.934,8.738-8.77,13.423-12.374c4.692-3.615,9.279-7.133,12.735-11.407        c2.758-3.369,4.804-7.089,5.641-10.959c0.409-1.925,0.511-3.893,0.261-5.765c-0.255-1.877-0.863-3.601-1.866-5.24        c-0.605-0.951-0.946-1.914-0.584-2.205c0.369-0.292,1.356,0.268,2.056,1.356c2.298,3.522,2.857,7.928,2.038,12.134        c-0.812,4.222-2.96,8.194-5.784,11.68c-2.475,3.098-5.462,5.761-8.559,8.291c2.512-1.865,5.009-3.735,7.324-5.819        c3.17-3.532,5.956-7.538,7.483-12.166c0.907-2.749,1.296-5.649,0.986-8.497c-0.295-2.848-1.41-5.599-3.153-7.908        c-0.862-1.16-1.874-2.213-2.988-3.151c-1.096-0.968-2.395-1.662-3.643-2.433c-2.623-1.323-5.553-2.124-8.552-2.136        c-2.911-0.029-5.539,0.812-7.784,1.9c-0.545,0.301-1.086,0.6-1.624,0.897c-0.49,0.361-0.977,0.719-1.462,1.076        c-0.489,0.33-0.916,0.746-1.333,1.156c-0.412,0.417-0.852,0.775-1.217,1.22c-3.001,3.465-4.777,7.463-5.488,11.803        c-0.059,0.381-0.258,0.764-0.46,0.87c-0.194,0.15-0.319-0.108-0.254-0.479c0.073-0.55,0.146-1.097,0.219-1.643        c0.041-0.566,0.248-1.072,0.36-1.622c0.214-1.112,0.657-2.129,1.047-3.209c0.939-2.044,2.071-4.145,3.715-5.902l0.594-0.694        l0.666-0.621c0.454-0.406,0.891-0.864,1.385-1.245c0.511-0.369,1.024-0.739,1.539-1.11c0.511-0.405,1.106-0.642,1.674-0.976        c2.304-1.223,4.988-2.125,7.916-2.246c3.091-0.165,6.265,0.426,9.096,1.766c0.716,0.314,1.363,0.753,2.045,1.134l1.006,0.601        c0.319,0.225,0.638,0.452,0.946,0.694c1.239,0.957,2.368,2.063,3.36,3.291c1.982,2.447,3.329,5.511,3.69,8.67        c0.386,3.155-0.065,6.345-1.084,9.317c-0.284,0.803-0.593,1.586-0.935,2.352c1.345-2.415,2.382-5.077,2.84-7.913        c0.174-2.769-0.178-5.632-1.225-8.31c-1.047-2.667-2.711-5.033-4.713-7.009c-1.012-0.976-2.083-1.907-3.283-2.637        l-1.773-1.154l-1.928-0.919l-0.973-0.451l-1.027-0.324c-0.688-0.207-1.374-0.438-2.073-0.612        c-1.427-0.219-2.856-0.535-4.317-0.481c-4.528-0.084-8.867,1.352-12.478,3.644c-3.62,2.319-6.551,5.483-8.79,9.085        c-0.493,0.953-1.239,1.697-1.595,1.747c-0.189,0.018-0.29-0.182-0.266-0.509C72.064,35.939,72.22,35.49,72.484,34.992z         M83.764,80.129c1.082-1.406,2.312-2.701,3.583-3.95c-5.322,4.527-9.641,10.21-12.661,16.536        C77.273,88.306,80.301,83.901,83.764,80.129z"/>
						<path fill="#1d1d1d" d="M75.193,84.24c1.297-1.665,2.642-3.273,4.048-4.933c1.405-1.617,2.796-3.166,4.047-4.697        c0.117-0.146,0.16-0.268,0.043-0.256c-0.118,0.015-0.3,0.135-0.441,0.304c-1.196,1.483-2.538,2.999-3.902,4.57        c-1.368,1.613-2.671,3.168-3.927,4.763c-0.144,0.198-0.222,0.387-0.171,0.445C74.918,84.504,75.069,84.399,75.193,84.24z"/>
						<path fill="#1d1d1d" d="M85.055,72.427c4.411-4.703,9.411-8.486,13.579-12.394c4.139-3.837,7.633-8.05,9.18-12.532        c0.631-1.804,0.936-3.642,0.866-5.375c-0.077-1.749-0.472-3.25-1.338-4.766c-0.865-1.503-2.163-2.928-3.741-4.061        l-1.252-0.773l-0.623-0.395l-0.668-0.28l-1.331-0.569c-0.463-0.116-0.927-0.232-1.393-0.349        c-2.444-0.535-5.014-0.317-7.061,0.706c-0.179,0.075-0.256,0.198-0.166,0.27c0.104,0.082,0.307,0.073,0.501-0.005        c2.148-0.837,4.552-0.998,6.854-0.44c0.57,0.16,1.167,0.247,1.708,0.541l0.835,0.364c0.282,0.112,0.563,0.231,0.818,0.422        l1.582,1.003c0.496,0.369,0.964,0.77,1.396,1.193c1.746,1.713,2.846,3.688,3.186,5.663c0.387,2.05,0.168,4.42-0.571,6.694        c-1.373,4.401-4.825,8.681-9.006,12.547c-4.2,3.945-9.313,7.777-13.751,12.569c-0.118,0.128-0.14,0.247-0.05,0.255        C84.728,72.688,84.939,72.553,85.055,72.427z"/>
						<path fill="#1d1d1d" d="M105.293,34.468c1.049,0.902,1.95,1.921,2.632,3.011c0.686,1.097,1.133,2.215,1.375,3.489        c0.484,2.553,0.051,5.454-1.282,8.081c-1.422,2.845-3.331,5.469-5.604,8.401c-3.054,3.911-6.554,7.21-11.168,10.432        c-0.157,0.101-0.281,0.247-0.277,0.333c0.034,0.057,0.175,0.027,0.334-0.074c5.079-3.419,9.107-7.138,12.386-11.327        c3.046-3.87,5.327-7.849,5.885-11.973c0.282-2.051,0.123-4.095-0.543-5.847c-0.66-1.757-1.914-3.433-3.571-4.738        c-0.135-0.117-0.264-0.138-0.314-0.094C105.103,34.228,105.173,34.371,105.293,34.468z"/>
						<path fill="#1d1d1d" d="M111.866,62.161c-3.1,3.565-6.763,6.631-10.146,9.463c-3.391,2.829-6.545,5.534-8.807,8.312        c-0.113,0.157-0.081,0.239,0.055,0.211c0.133-0.027,0.349-0.168,0.458-0.311c2.26-2.714,5.405-5.3,8.761-8.029        c3.348-2.727,6.968-5.723,9.968-9.252c0.294-0.332,0.453-0.702,0.386-0.816C112.448,61.64,112.174,61.82,111.866,62.161z"/>
						<path fill="#1d1d1d" d="M75.242,86.756c1.121-1.777,2.351-3.481,3.666-5.112c1.351-1.652,2.81-3.188,4.316-4.633        c3.018-2.888,6.222-5.393,9.197-7.943c3.066-2.165,6.056-4.295,8.642-6.747c0.386-0.334,0.583-0.72,0.466-0.85        c-0.122-0.133-0.51,0.037-0.892,0.368c-1.33,1.175-2.779,2.249-4.226,3.36c0.009-0.077-0.01-0.136-0.059-0.175        c2.481-2.028,4.826-4.065,6.858-6.269c2.037-2.204,3.79-4.573,5.041-7.066c0.142-0.275,0.161-0.526,0.058-0.572        c-0.108-0.055-0.303,0.122-0.441,0.39c-1.319,2.521-3.131,4.926-5.232,7.181c-2.094,2.251-4.513,4.362-7.072,6.478        c-0.222,0.114-0.458,0.27-0.687,0.465c-4.351,3.561-8.978,7.068-13.268,11.612c-1.517,1.595-3.016,3.323-4.323,5.029        c-1.324,1.717-2.582,3.476-3.732,5.309c-2.301,3.657-4.22,7.614-5.432,11.87c-0.931,3.287-1.409,6.859-1.182,10.741        c0.101,1.629,0.359,3.35,0.948,4.979c0.581,1.634,1.494,3.115,2.621,4.258c1.603,1.598,3.466,2.56,5.227,3.098        c1.774,0.538,3.477,0.692,5.097,0.674c0.194,0,0.223-0.073,0.098-0.152c-0.094-0.08-0.35-0.148-0.517-0.138        c-1.605-0.013-3.342-0.264-5.08-0.879c-1.735-0.607-3.465-1.616-4.928-2.964c-1.138-1.468-1.996-3.168-2.519-4.914        c-0.53-1.748-0.74-3.519-0.768-5.222c-0.044-3.417,0.581-6.581,1.251-9.589C70.064,94.682,72.67,90.892,75.242,86.756z"/>
					</g>
				</g>
			</g>
		</g>
	</g>
</g>
<g>
	<g>
		<g>
			<g>
				<g opacity="0.8">
					<g>
						<path fill="#1d1d1d" d="M68.397,39.077c-2.678-3.859-6.084-6.971-10.076-8.621l-0.745-0.316l-0.77-0.248        c-0.505-0.195-1.037-0.299-1.563-0.433c-1.062-0.243-2.225-0.397-3.333-0.495c-1.086-0.08-2.174-0.028-3.265,0.089        c-1.085,0.153-2.165,0.409-3.232,0.764c0.018,0.043,0.025,0.093,0.014,0.148c-0.068,0.254-0.393,0.506-0.742,0.572        c-0.961,0.276-1.949,0.588-2.882,1.058c-1.608,1.014-3.035,2.434-4.141,3.933c0.896-1.177,2.029-2.304,3.258-3.149        c0.36-0.271,0.76-0.33,0.873-0.105c0.113,0.214-0.066,0.609-0.423,0.871c-0.748,0.608-1.491,1.289-2.135,2.073        c-0.17,0.188-0.334,0.383-0.483,0.589l-0.218,0.283l-0.13,0.157l-0.677,1.195c-0.921,1.783-1.557,3.61-2.206,5.386        c-0.064,4.669,2.035,9.231,5.179,12.564c0.385,0.434,0.785,0.819,1.187,1.175c0.361,0.364,0.875,0.738,1.337,1.102        c0.905,0.73,1.94,1.44,2.947,2.131c2.073,1.366,4.204,2.616,6.462,3.819c0.186,0.082,0.355,0.243,0.38,0.372        c0.054,0.145-0.042,0.201-0.214,0.135c-2.457-1.109-4.838-2.321-7.172-3.718l-1.716-1.09        c-0.575-0.372-1.084-0.759-1.637-1.152c-0.268-0.197-0.553-0.396-0.809-0.598l-0.711-0.615        c-0.489-0.395-0.93-0.906-1.405-1.369c-1.791-1.955-3.305-4.3-4.245-6.912c-0.917-2.608-1.304-5.487-0.821-8.297        c0.082-0.692,0.275-1.357,0.461-2.021c-0.89,1.807-1.465,3.86-1.612,6.055c0.168,0.22,0.305,0.572,0.355,0.991        c0.057,0.505,0.187,1.001,0.299,1.495c0.098,0.497,0.248,0.983,0.405,1.465c0.036-0.053,0.082-0.088,0.134-0.103        c0.207-0.042,0.452,0.277,0.551,0.706c0.691,2.4,1.816,4.668,3.192,6.795c0.039,0.048,0.067,0.098,0.091,0.152        c0.478,0.617,0.977,1.238,1.496,1.801l0.78,0.841l0.885,0.811c1.151,1.087,2.419,2.137,3.683,3.166        c2.544,2.056,5.235,3.997,7.963,5.995c5.424,3.999,11.123,8.22,15.818,13.993c0.188,0.111,0.353,0.39,0.38,0.556        c0.036,0.191-0.075,0.237-0.248,0.113c-0.06,0.053-0.123,0.169-0.172,0.121c-4-3.78-8.216-6.427-12.55-9.726        c-1.504-1.115-3.001-2.226-4.491-3.331c1.349,1.371,2.574,2.775,3.544,4.181c3.799,2.924,7.658,6.098,10.176,10.093        l-0.018-0.231c0.27,0.319,0.403,0.705,0.258,0.83c-0.121,0.145-0.455-0.02-0.732-0.332        C58.761,78.654,51.36,74.082,44.22,68.411c-1.788-1.406-3.534-2.922-5.246-4.504c-0.84-0.849-1.703-1.628-2.517-2.564        c-0.828-0.948-1.571-1.916-2.27-2.931c-2.777-4.049-4.723-8.881-5.03-14.1c-0.118-2.068,0.082-4.158,0.53-6.189l0.403-1.507        c0.144-0.499,0.347-0.977,0.522-1.465c0.172-0.491,0.372-0.968,0.609-1.425l0.34-0.695c0.135-0.26,0.243-0.526,0.425-0.817        l0.962-1.351l0.972-1.192l1.049-1.127l1.122-1.056c1.544-1.358,3.278-2.514,5.151-3.407c1.119-0.541,2.193-0.551,2.335-0.097        c0.131,0.443-0.614,1.136-1.637,1.646c-3.391,1.717-6.186,4.313-8.244,7.492c-0.292,0.454-0.452,0.906-0.66,1.315        c-0.201,0.42-0.399,0.84-0.543,1.285l-0.47,1.316l-0.348,1.355c-0.399,1.816-0.631,3.683-0.522,5.541        c0.111,3.274,1.014,6.424,2.345,9.287c-0.924-2.295-1.457-4.758-1.488-7.198c-0.554-3.668-0.027-7.646,1.792-11.067        c2.291-4.088,6.041-6.823,10.062-8.461c4.079-1.627,8.555-1.84,13.149-1.101c4.437,0.788,8.387,2.423,11.813,4.942        c3.417,2.508,6.414,5.874,8.238,10.462c0.169,0.4,0.224,0.88,0.112,1.078c-0.11,0.184-0.321,0.074-0.491-0.328        c-3.787-8.585-11.129-14.014-19.486-15.275c-0.557-0.059-1.11-0.118-1.658-0.176c-0.554-0.024-1.103-0.047-1.65-0.071        c-0.545-0.022-1.09-0.004-1.628-0.018c-0.535,0.037-1.066,0.046-1.592,0.096c-2.105,0.201-4.146,0.681-6.095,1.446        c-1.939,0.785-3.774,1.864-5.446,3.206c-0.818,0.691-1.624,1.417-2.34,2.24c-0.371,0.394-0.719,0.837-1.043,1.255        c-0.324,0.369-0.527,0.885-0.818,1.364c-0.317,0.515-0.504,1.082-0.753,1.624c0.256-0.426,0.481-0.858,0.758-1.261l0.845-1.15        c0.116-0.179,0.295-0.296,0.449-0.457l0.51-0.497c0.36-0.31,0.714-0.618,1.075-0.907c2.444-2.604,5.604-4.397,8.922-5.157        c1.66-0.384,3.36-0.519,5.053-0.42c1.715,0.118,3.475,0.405,5.108,0.866c2.537,0.778,4.985,1.886,7.116,3.575        c1.097,0.802,2.052,1.793,2.975,2.824c0.863,1.078,1.695,2.218,2.306,3.493c0.395,0.604,0.42,1.333,0.168,1.573        C69.195,39.971,68.733,39.662,68.397,39.077z M43.375,64.572c-1.145-0.731-2.22-1.559-3.28-2.417        c3.862,3.663,8.11,6.82,12.33,10.079C49.615,69.525,46.399,67.03,43.375,64.572z"/>
						<path fill="#1d1d1d" d="M45.648,71.766c-2.183-2.098-4.594-4.175-7.131-5.789c-0.124-0.073-0.23-0.085-0.225,0.013        c0.007,0.099,0.108,0.232,0.247,0.323c2.448,1.534,4.795,3.571,6.879,5.589c0.132,0.116,0.27,0.173,0.328,0.124        C45.808,71.995,45.753,71.867,45.648,71.766z"/>
						<path fill="#1d1d1d" d="M36.637,64.839l-1.539-1.19c-0.512-0.416-1.026-0.955-1.535-1.447        c-0.979-1.006-1.875-2.068-2.716-3.224c-1.663-2.311-3.034-4.959-3.932-7.884c-0.894-2.92-1.298-6.129-1.032-9.368        c0.256-3.237,1.205-6.47,2.707-9.329l0.482-0.896l0.301-0.558c0.105-0.218,0.279-0.395,0.399-0.575l0.649-0.85        c0.192-0.257,0.402-0.499,0.614-0.739c0.42-0.483,0.837-0.963,1.296-1.405c0.442-0.457,0.901-0.894,1.385-1.305        c1.903-1.671,4.026-3.068,6.309-4.15c2.281-1.085,4.729-1.839,7.246-2.235c2.502-0.407,5.143-0.428,7.565-0.178        c1.602,0.146,3.285,0.419,4.899,0.829c0.807,0.206,1.615,0.396,2.387,0.661c0.785,0.236,1.561,0.476,2.305,0.757        c0.252,0.102,0.437,0.086,0.393-0.042c-0.052-0.147-0.294-0.321-0.575-0.439c-1.567-0.627-3.184-1.117-4.816-1.516        c-0.815-0.198-1.647-0.322-2.467-0.484c-0.812-0.117-1.609-0.187-2.413-0.284c-1.583-0.124-3.28-0.218-4.989-0.074        c-1.701,0.103-3.402,0.382-5.063,0.818c-3.333,0.852-6.481,2.379-9.237,4.401c-1.372,1.021-2.639,2.17-3.803,3.415        c-0.555,0.643-1.131,1.275-1.626,1.967l-0.448,0.607c-0.167,0.225-0.388,0.523-0.499,0.78l-0.657,1.265        c-1.472,2.924-2.405,6.219-2.642,9.521c-0.247,3.303,0.177,6.578,1.105,9.554c0.932,2.98,2.338,5.679,4.046,8.027        c0.863,1.18,1.771,2.248,2.791,3.277c1.044,1.095,2.084,1.856,3.127,2.642c0.113,0.083,0.219,0.082,0.229,0.001        C36.864,65.084,36.748,64.92,36.637,64.839z"/>
						<path fill="#1d1d1d" d="M44.679,20.425c-1.745,0.525-3.402,1.273-4.959,2.154c-1.563,0.875-3.024,1.904-4.366,3.059        c-1.345,1.152-2.611,2.399-3.741,3.773c-0.299,0.331-0.559,0.693-0.836,1.043l-0.526,0.691        c-0.194,0.277-0.302,0.524-0.446,0.766c-0.467,0.841-0.933,1.58-1.311,2.442c-0.919,1.784-1.456,3.737-1.807,5.715        c-0.247,1.989-0.303,4.038,0.092,6.046c0.487,2.695,1.367,5.037,2.381,7.221c1.023,2.185,2.182,4.225,3.49,6.336        c0.076,0.146,0.202,0.259,0.287,0.251c0.059-0.032,0.04-0.157-0.035-0.305c-1.361-2.3-2.613-4.57-3.644-7.019        c-1.022-2.444-1.816-5.085-2.07-7.963c-0.226-2.669,0.087-5.407,0.87-7.967c0.173-0.649,0.406-1.273,0.666-1.886        c0.249-0.617,0.494-1.235,0.816-1.808l0.465-0.885l0.286-0.538c0.091-0.213,0.26-0.388,0.376-0.563l0.64-0.855        c0.19-0.263,0.405-0.506,0.615-0.754c3.343-3.972,7.773-6.947,12.859-8.703c0.218-0.066,0.335-0.174,0.328-0.241        C45.074,20.364,44.873,20.361,44.679,20.425z"/>
						<path fill="#1d1d1d" d="M36.882,43.565c-0.202,2.472,0.401,5.212,1.644,7.596c1.266,2.392,3.105,4.401,5.234,5.526        c0.129,0.058,0.204,0.013,0.189-0.09c-0.014-0.103-0.12-0.247-0.237-0.304c-1.994-1.077-3.725-3.161-4.858-5.445        c-1.102-2.316-1.627-4.893-1.498-7.217c0.008-0.224-0.082-0.419-0.21-0.449C37.015,43.166,36.902,43.322,36.882,43.565z"/>
						<path fill="#1d1d1d" d="M47.719,71.6c-2.407-1.905-4.783-3.911-7.106-6.011l-1.73-1.596l-1.714-1.677        c-0.585-0.522-1.123-1.212-1.691-1.815c-0.52-0.639-1.063-1.253-1.558-1.911c-1.634-2.696-2.946-5.584-3.871-8.657        c-0.106-0.447-0.332-0.779-0.505-0.741c-0.174,0.037-0.227,0.443-0.118,0.904c0.206,0.802,0.452,1.588,0.694,2.375        c0.292,0.763,0.531,1.557,0.893,2.286c-0.071-0.021-0.132-0.014-0.182,0.024c-1.261-2.587-2.188-5.416-2.554-8.398        c-0.374-2.974-0.196-6.085,0.586-9.046c0.094-0.326,0.072-0.601-0.036-0.631c-0.115-0.038-0.281,0.204-0.377,0.534        c-0.87,3.119-1.06,6.428-0.591,9.548c0.463,3.127,1.504,6.07,2.913,8.728c0.055,0.221,0.147,0.464,0.279,0.702        c1.255,2.226,2.703,4.163,4.424,6.025c0.849,0.913,1.721,1.647,2.583,2.476c0.876,0.74,1.742,1.515,2.635,2.24        c5.061,4.164,9.645,8.18,14.194,12.093c0.915,0.766,1.798,1.507,2.739,2.228c0.872,0.759,1.821,1.482,2.61,2.338        c0.672,0.714,1.331,1.463,1.916,2.222c0.304,0.373,0.612,0.735,0.933,1.076c0.308,0.348,0.601,0.692,0.93,0.998        c1.844,1.675,3.434,3.273,5.07,4.96c0.098,0.106,0.172,0.09,0.175-0.03c0.018-0.092-0.058-0.265-0.151-0.346        c-0.845-0.828-1.558-1.747-2.457-2.546l-1.271-1.207c-0.451-0.375-0.91-0.731-1.357-1.071        c-2.475-3.402-5.575-6.338-9.089-8.857C52.588,76.395,50.527,73.811,47.719,71.6z"/>
					</g>
				</g>
			</g>
		</g>
	</g>
</g>
<g>
	<g>
		<g>
			<g>
				<g>
					<path fill="#010101" d="M72.62,42.963c0.093,0.842,0.809-0.06,1.46-0.714c-0.314-0.362-0.625-0.737-0.931-1.125L72.62,42.963z"/>
					<path fill="#010101" d="M74.422,39.087c-0.093-0.826-0.186-1.694-0.14-2.531l-0.144,0.84c-0.03,0.286-0.041,0.578-0.06,0.862       c-1.321,1.342-1.145-0.799-1.012-1.561C72.039,39.587,73.977,38.341,74.422,39.087z"/>
					<path fill="#010101" d="M75.654,34.87c0.938-1.069,0.039-1.271-0.557-0.928C75.322,34.233,75.074,35.201,75.654,34.87z"/>
					<path fill="#010101" d="M93.209,67.941c0.42-0.093,0.865-0.272,0.95-0.048C94.366,67.439,94.324,67.224,93.209,67.941z"/>
					<path fill="#010101" d="M94.158,67.893c-0.043,0.085-0.089,0.177-0.143,0.283c0.06-0.068,0.115-0.119,0.176-0.206       C94.194,67.93,94.168,67.92,94.158,67.893z"/>
					<path fill="#010101" d="M120.824,51.001c-0.045-2.155,0.553-3.237,0.495-5.261c0.383-0.337,0.744-0.694,1.112-1.063       c-0.123-1.138-0.357-1.385-0.601-1.554c-0.251-0.167-0.501-0.259-0.81-1.038c0.285-1.008,0.129-2.604-0.258-4.027       c-0.371-1.429-0.971-2.661-1.125-3.129c0.199-0.827,0.928,0.576,1.303,0.831c-0.61-1.277-1.188-1.736-1.742-2.254       c-0.567-0.514-1.108-1.099-1.956-2.443l0.208-0.196c-2.696-2.815-5.769-5.461-9.358-7.294       c-3.506-1.93-7.645-3.149-11.492-2.987c0.508,0.095,0.357,0.315,0.531,0.543c-3.931-0.236-8.182,0.524-11.633,2.33       c-3.468,1.77-6.062,4.508-7.168,7.263c0.59-0.728,1.525-1.332,2.46-2.027c0.496-0.313,1.044-0.585,1.578-0.884       c0.537-0.299,1.076-0.604,1.661-0.829c0.571-0.249,1.134-0.506,1.679-0.78c0.562-0.236,1.126-0.445,1.654-0.703       c1.043-0.562,2.071-0.952,2.921-1.648c0.193,0.049,0.39,0.068,0.59,0.066c0.204,0.02,0.411,0.02,0.619,0.007       c0.415-0.026,0.834-0.104,1.231-0.169c0.397-0.057,0.769-0.135,1.083-0.074c0.314,0.063,0.564,0.197,0.71,0.461       c0.673,0.07,1.292,0.103,1.875,0.109c0.578,0.071,1.121,0.125,1.647,0.148c0.521,0.043,1.042-0.013,1.525,0.06       c0.495,0.044,0.978,0.087,1.461,0.13c0.483,0.053,0.998,0.04,1.481,0.157c0.487,0.105,0.989,0.222,1.512,0.364       c0.511,0.161,1.093,0.264,1.612,0.555c0.533,0.266,1.091,0.572,1.674,0.931c0.56,0.57-0.051,0.788-0.141,1.305       c-1.277-0.569-2.463-1.245-3.803-1.577l1.03,0.688l0.936,0.815c-0.282-0.039-0.615-0.169-0.967-0.331       c-0.357-0.153-0.769-0.271-1.145-0.4c-0.763-0.243-1.453-0.39-1.74-0.011c0.845,0.09,1.813,0.313,2.775,0.695       c0.913,0.475,1.895,0.977,2.799,1.573c1.806,1.222,3.313,2.678,4.762,3.529c-0.695-1.327-2.16-2.492-3.442-3.632       c-0.368-0.747-1.225-1.626-0.889-1.981c2.566,0.844,4.536,2.503,6.087,4.493c1.547,2.004,2.691,4.416,3.523,7.198       c0.451,1.398,0.487,3.377-0.008,3.613c-0.221-0.904-0.575-0.199-0.87-0.91c0.278,0.932,0.712,0.975,1.087,1.125       c0.359,0.148,0.698,0.433,0.526,1.903c-0.562-0.159-1.125-0.31-1.689-0.45c0.875,0.581,0.737,1.471,0.42,2.393       c-0.317,0.933-0.79,1.888-0.565,2.97c-0.864,0.475-0.835-0.852-0.613-2.28c-0.631,1.54,0.275,1.929-0.159,3.222       c-0.318-0.556-0.668-1.097-1.034-1.615c0.503,0.847,0.213,1.437-0.238,1.844c-0.475,0.405-1.139,0.627-1.494,0.878       c0.287,0.229,1.613-0.007,0.818,1.546c-0.496,0.586-0.659,0.079-0.921,0.142c0.278,0.237,0.6,1.104,0.049,2.129       c-0.523-0.067-0.262-1.027-0.668-1.325c-0.375,0.744-0.657,1.382-1.319,1.672c-0.48,1.451,0.648,0.304,0.576,1.36       c-1.619,1.691-1.511-0.783-2.835-0.712c0.407-1.711,1.217-3.543,1.219-4.45c-0.31,0.928-0.709,1.841-1.14,2.754       c-0.388-0.447-1.926,1.08-1.524-0.497c-1.993,2.038-3.912,5.032-5.83,7.333c0.438-0.13,0.918-0.402,1.098-0.078       c-0.907,1.285-1.276,0.626-1.778,0.521c-0.599,1.041,0.132,1.717,0.041,2.738c-2.4,0.884-2.372,1.479-4.747,1.781l0.699,0.712       c-1.664,0.25-0.94,1.577-2.58,2.069c-0.198-0.118,0.146-0.687,0.405-1.166c-0.948,1.107-1.548,0.11-2.444,1.251l0.235-1.547       c-0.87,0.691-1.99,1.955-2.089,0.854c-0.893,2.071-3.968,3.871-5.474,6.063l-0.433-0.757c-0.168,0.819-1.082,1.632-1.955,2.474       c-0.865,0.855-1.681,1.748-1.615,2.609l-0.391-0.091c-0.338,0.906-0.609,1.864-0.884,2.769       c-0.812,0.857-1.578-0.251-1.355,0.044c-1.449,2.212-2.517,3.951-3.791,5.163c0.736,0.969-0.392,3.452-1.19,5.462       c-1.296,2.259-2.339,4.734-3.079,7.311c-0.726,2.537-1.241,5.245-1.245,8.025c0.007,2.768,0.626,5.653,2.078,7.999       c0.738,1.157,1.613,2.18,2.628,3.004c1.021,0.808,2.127,1.416,3.252,1.832c0.637,0.323,1.55,0.376,2.479,0.288       c0.934-0.083,1.884-0.298,2.731-0.398c-0.935-0.352-1.454-0.437-1.994-0.496c-0.531-0.07-1.09-0.107-1.955-0.522       c-1.15-0.923-0.909-2.24-1.13-3.383c-0.098,0.344-0.175,0.696-0.242,1.065c-0.898-0.228-1.009-0.573-1.094-0.811       c-0.091-0.261-0.145-0.404-0.931-0.69l1.308-0.857c-0.932,0.126-0.909-1.215-0.659-1.726c-0.389,0.027-0.774,0.032-1.152,0.016       c0.207-1.156,0.391-1.85,1.307-2.275l-0.963,0.243c0.262-0.227,0.127-1.175,0.235-1.987c0.119-0.822,0.394-1.391,1.207-0.736       c-0.216-0.296-0.698-0.621-0.513-1.299l0.993,0.015c-0.151-0.974-0.08-2.179,0.521-2.345c0.119,0.595,0.506,0.857,0.896,1.11       c0.506-2.012-0.145-2.498-0.926-2.879c-0.759-0.377-1.597-0.763-1.002-2.793l0.593,0.246l-0.298-1.228l1.147-0.765       c-0.745-1.092-0.125-2.491,0.758-3.866c0.879-1.388,2.003-2.738,2.198-4.138c0.397-0.972,2.194-1.37,3.214-2.963l-0.865-0.492       c0.871-0.34,2.324-1.53,3.912-2.402c1.583-0.903,3.387-1.539,4.647-1.148c0.546-1.49-0.256-0.062-0.745-0.657       c0.688-1.298,1.359-1.694,2.028-1.808c0.662-0.118,1.32,0.032,2.09-0.201c1.074-1.477-1.287,0.54-1.009-0.628       c2.6-1.091,0.992-2.326,4.196-3.905c0.615,0.235-0.508,0.856-0.57,1.363c1.343-2.275,5.578-4.552,8.55-7.288       c1.978-1.186,4.364-2.968,6.678-5.129c2.327-2.147,4.586-4.71,6.499-7.274l-0.257-0.274c1.023-0.932,1.665-2.194,2.152-3.589       c0.509-1.39,0.858-2.89,1.435-4.439C121.446,50.091,121.133,50.548,120.824,51.001z"/>
					<path fill="#010101" d="M100.135,27.822l0.073,0.893l0.521,0l0.505,0.073l1.033,0.15       C101.773,28.009,101.18,28.252,100.135,27.822z"/>
					<path fill="#010101" d="M101.393,25.515l-1.28,0.036c0.621,0.177,1.268,0.29,1.873,0.521       C101.804,25.854,101.598,25.692,101.393,25.515z"/>
					<path fill="#010101" d="M113.119,48.506l0.204-0.242c0.124-1.417,0.087-2.824-0.092-4.178       C113.357,45.529,113.339,47.02,113.119,48.506z"/>
					<path fill="#010101" d="M92.827,67.159c0.137-0.653,0.817-0.925,1.04-1.472l-1.356,1.54L92.827,67.159z"/>
					<path fill="#010101" d="M74.634,78.723c0.639,1.629-1.087,1.352,0.708,1.3C75.991,78.8,74.787,79.348,74.634,78.723z"/>
					<path fill="#010101" d="M73.372,84.169c0.475-0.611,0.531-1.094,0.596-1.572C72.823,83.05,73.444,83.532,73.372,84.169z"/>
				</g>
			</g>
		</g>
	</g>
</g>
<g>
	<g>
		<g>
			<g>
				<g>
					<path fill="#010101" d="M73.112,42.782c0.439,0.52,0.718-0.337,0.909-1.143c-0.453-0.107-0.903-0.204-1.351-0.291       L73.112,42.782z"/>
					<path fill="#010101" d="M72.478,39.43c-0.609-0.386-1.227-0.737-1.822-1.066l1.032,0.862c-0.119,1.462-1.324,0.308-1.728-0.012       c0.547,0.885,0.962,0.944,1.355,0.768C71.713,39.809,72.081,39.387,72.478,39.43z"/>
					<path fill="#010101" d="M70.205,36.814c-0.434-0.976-1.022-0.285-1.032,0.203C69.527,36.893,70.167,37.333,70.205,36.814z"/>
					<path fill="#010101" d="M32.962,57.887c-0.035-0.372-0.115-0.781,0.111-0.846C32.694,56.83,32.453,56.869,32.962,57.887z"/>
					<path fill="#010101" d="M33.073,57.041c0.072,0.042,0.15,0.087,0.239,0.138c-0.053-0.056-0.09-0.106-0.16-0.164       C33.114,57.01,33.1,57.033,33.073,57.041z"/>
					<path fill="#010101" d="M40.793,38.115c-0.069-0.555-0.181-0.509-0.109-0.612c0.15-0.239,0.367-0.493,0.515-0.867       c0.359,0.104,0.712,0.215,1.057,0.333c0.289-0.808-0.416-0.841-0.38-1.668c0.521-0.039,0.946-0.445,1.337-0.833       c0.376-0.402,0.715-0.786,0.871-0.884c0.472,0.257,0.119,0.723,0.204,1.03c0.263-0.428,0.277-0.802,0.336-1.193       c0.055-0.397,0.192-0.749,0.741-1.056l0.146,0.24c0.97-1.333,2.617-2.145,4.404-2.55c0.917-0.155,1.804-0.303,2.829-0.295       c0.998-0.019,2.031-0.033,2.976-0.014c-0.235-0.111-0.121-0.307-0.172-0.532c2.042,0.282,4.135,1.09,6.137,2.057       c2.02,0.962,3.938,2.097,6.071,2.894c-0.904-0.946-1.779-2.515-3.058-3.802c-1.266-1.269-2.895-2.239-4.468-2.008       c-0.26-0.552-0.882-0.706-1.391-0.89c-0.52-0.167-0.972-0.284-1.003-0.854c-0.432-0.221-0.856-0.361-1.267-0.439       c-0.409-0.087-0.794-0.154-1.168-0.173c-0.76,0.011-1.443,0.071-2.113,0.222c-1.354,0.259-2.554,0.726-4.225,0.944       c-0.509-0.118-0.352-0.653-0.572-1.115c0.92-0.309,1.878-0.56,2.863-0.715c-0.601-0.166-1.211-0.226-1.837-0.334       c0.763-0.551,2.733-0.221,3.013-1.105c-1.41,0.483-3.142,0.6-4.807,1.006c-1.659,0.378-3.21,1.079-3.965,2.138       c1.041-0.226,2.187-0.912,3.43-1.109c0.304,0.103,0.669,0.17,0.958,0.275c0.292,0.121,0.508,0.282,0.52,0.531       c-1.533,0.974-2.822,1.582-4.14,2.237c-1.3,0.656-2.621,1.384-3.742,2.596c-0.567,0.591-1.393,1.312-1.845,1.074       c0.267-0.514-0.317-0.5-0.147-0.994c-0.575,1.155,1.157,1.334-0.104,2.419l-1.157-1.287c0.458,0.871,0.067,1.204-0.434,1.585       c-0.123,0.098-0.25,0.199-0.377,0.3c-0.114,0.09-0.221,0.181-0.31,0.286c-0.156,0.22-0.214,0.521-0.123,0.92       c-0.406,0.047-0.61-0.151-0.656-0.487c-0.035-0.335,0.013-0.788,0.29-1.165c-0.454,0.333-0.388,0.715-0.333,1.043       c0.061,0.345,0.172,0.668-0.037,1.055c-0.32-0.448-0.631-0.915-0.933-1.401c0.788,1.472-0.965,1.499-1.639,1.926       c0.326,0.182,1.512,0.075,1.049,1.201c-0.321,0.451-0.601,0.088-0.834,0.15c0.337,0.176,0.809,0.771,0.686,1.546       c-0.511,0.043-0.613-0.687-1.065-0.864c-0.143,0.625-0.106,1.151-0.602,1.541c0.206,1.175,0.692,0.04,1.123,0.78       c-0.251,0.797-0.679,0.813-1.177,0.673c-0.498-0.136-1.066-0.448-1.615-0.153c-0.138-0.37-0.249-0.772-0.324-1.178       c-0.053-0.403-0.083-0.813-0.106-1.204c-0.068-0.788-0.004-1.476-0.083-1.919c-0.168,0.959-0.196,1.934-0.236,2.888       c-0.58-0.29-1.19,1.855-1.588,0.214c-0.439,1.47-0.512,3.191-0.23,4.817c0.067,0.407,0.144,0.811,0.226,1.208       c0.114,0.387,0.228,0.772,0.34,1.151c0.215,0.756,0.519,1.45,0.79,2.096c0.102-0.43,0.107-0.94,0.479-0.937       c0.648,1.276-0.086,1.301-0.406,1.695c0.692,0.9,1.602,0.492,2.478,0.837c-0.065,1.089,0.1,1.663,0.175,2.224       c0.114,0.549,0.164,1.074,0.013,2.155l0.833-0.545c-0.1,1.457,1.244,0.922,1.448,2.312c-0.14,0.174-0.628-0.119-1.042-0.358       c0.907,0.833-0.135,1.388,0.845,2.16c-0.49-0.041-0.957-0.111-1.44-0.183c0.539,0.814,1.679,1.732,0.615,1.89       c0.473,0.184,0.921,0.481,1.386,0.84c0.456,0.343,0.888,0.825,1.332,1.179c0.883,0.748,1.749,1.642,2.679,2.05l-0.692,0.522       c0.728-0.021,1.383,0.625,2.048,1.242c0.676,0.587,1.359,1.146,2.089,0.964l-0.122,0.358c0.74,0.156,1.486,0.271,2.224,0.399       c0.6,0.643-0.457,1.436-0.173,1.208c1.617,1.068,2.821,1.954,3.484,3.065c0.963-0.699,2.698,0.318,4.001,1.197       c5.422,5.319,11.909,9.665,16.551,15.123c0.62,0.835,2.319,1.588,3.471,2.601c-0.513-1.628-1.057-1.547-1.854-2.978       c-0.383-1.198,0.409-2.23,0.407-3.575c-0.156,0.33-0.326,0.667-0.503,1.003c-1.601-0.981-0.253-1.271-1.825-1.808l1.293-0.878       c-0.91,0.062-1.134-1.266-1.147-1.911l-1.121,0.335c-0.216-1.226-0.506-1.917-0.005-2.811l-0.667,0.737       c0.095-0.358-0.632-1.114-1.12-1.804c-0.499-0.668-0.778-1.267,0.284-1.403c-0.386-0.068-0.952,0.089-1.362-0.479l0.617-0.778       c-0.889-0.549-1.836-1.13-1.668-1.738c0.556,0.192,0.987,0,1.417-0.194c-3.013-2.994-2.831,1.734-5.61-0.577l0.45-0.458       l-1.132-0.083l-0.206-1.226c-2.382,0.842-3.717-3.319-6.076-3.736c-0.763-0.383-0.76-2.068-2.049-2.939l-0.553,0.822       c-0.323-1.569-3.39-5.045-2.494-7.446c-1.309-0.195-0.062,0.227-0.618,0.776c-2.293-0.746-1.188-1.945-1.49-3.066       c-1.205-0.539,0.365,0.917-0.634,0.954c-0.417-0.941-0.76-0.968-1.269-1.076c-0.489-0.08-1.036-0.292-1.404-1.376       c0.336-0.483,0.642,0.246,1.073,0.209c-1.726-0.647-2.696-3.478-3.473-5.458c-0.085-1.287-0.137-2.787,0.038-4.225       c0.172-1.439,0.618-2.807,1.32-3.825l-0.334-0.129c0.588-0.36,0.707-0.82,0.882-1.324c0.076-0.253,0.11-0.528,0.249-0.777       c0.061-0.127,0.128-0.252,0.207-0.373c0.047-0.077,0.068-0.088,0.092-0.103c0.024-0.011,0.057-0.045,0.08-0.032       C41.244,37.994,41.056,37.98,40.793,38.115z"/>
					<path fill="#010101" d="M53.511,22.874L53.25,22.01c-0.66,0.118-1.33,0.301-1.984,0.491       C52.049,23.182,52.461,22.598,53.511,22.874z"/>
					<polygon fill="#010101" points="52.907,25.4 53.844,25.087 52.374,25.021      "/>
					<path fill="#010101" d="M33.645,34.317l0.223-0.153c0.342-1.218,0.926-2.234,1.487-3.306c-0.325,0.553-0.663,1.088-0.944,1.655       l-0.441,0.872C33.824,33.691,33.748,34.021,33.645,34.317z"/>
					<path fill="#010101" d="M32.155,58.21c-0.617-0.143-0.747-0.807-1.239-1.065c0.421,0.46,0.813,0.932,1.262,1.354L32.155,58.21z       "/>
					<path fill="#010101" d="M41.018,72.794c1.452-0.757,0.925,0.809,1.193-0.776C41.308,71.584,41.559,72.586,41.018,72.794z"/>
					<path fill="#010101" d="M45.204,73.395c-0.391-0.382-0.768-0.399-1.144-0.415C44.187,73.96,44.703,73.373,45.204,73.395z"/>
				</g>
			</g>
		</g>
	</g>
</g>
<g>
</g>
<g>
</g>
<g>
</g>
<g>
</g>
<g>
</g>
<g>
</g>
</svg>